<svg xmlns="http://www.w3.org/2000/svg" viewBox="0 0 500 500"><g id="freepik--Floor--inject-570"><path d="M413,256.89c-90.59-52.3-237-52.3-327,0S-3.53,394,87.05,446.28s237,52.3,327,0S503.53,309.19,413,256.89Z" style="fill:#f5f5f5"></path></g><g id="freepik--Shadows--inject-570"><path d="M287,420.89c-17.07-9.86-44.67-9.86-61.63,0s-16.88,25.85.2,35.7,44.67,9.86,61.63,0S304.05,430.75,287,420.89Z" style="fill:#e6e6e6"></path><path d="M444.54,357.75c-9.32-5.38-24.38-5.38-33.64,0s-9.21,14.11.11,19.49,24.38,5.38,33.64,0S453.86,363.13,444.54,357.75Z" style="fill:#e6e6e6"></path><path d="M154.47,361c-22.26-12.85-58.24-12.85-80.36,0s-22,33.7.26,46.56,58.25,12.85,80.37,0S176.74,373.88,154.47,361Z" style="fill:#e6e6e6"></path><path d="M394.52,390.49l-5.25,3a3.81,3.81,0,0,1-3.81,0l-142.55-82.3a1,1,0,0,1,0-1.65l5.24-3a3.83,3.83,0,0,1,3.82,0l142.55,82.3A1,1,0,0,1,394.52,390.49Z" style="fill:#e6e6e6"></path><path d="M348.86,392.16l-5.24,3a3.83,3.83,0,0,1-3.82,0L206.55,318.53a1,1,0,0,1,0-1.65l5.24-3a3.83,3.83,0,0,1,3.82,0l133.25,76.66A1,1,0,0,1,348.86,392.16Z" style="fill:#e6e6e6"></path></g><g id="freepik--Plant--inject-570"><path d="M444.76,335.57l-17.55.51-17.56-.51c-.75,11.85,1.56,23.93,4.75,29.84h0a8,8,0,0,0,3.47,3.54c5.18,3,13.55,3,18.7,0a7.8,7.8,0,0,0,3.47-3.63C443.23,359.38,445.52,347.36,444.76,335.57Z" style="fill:#e0e0e0"></path><path d="M439.58,328.38c6.88,4,6.92,10.41.08,14.38s-18,4-24.83,0-6.91-10.41-.08-14.38S432.7,324.41,439.58,328.38Z" style="fill:#ebebeb"></path><path d="M436.86,330c5.37,3.1,5.4,8.12.06,11.22s-14,3.09-19.36,0-5.4-8.12-.07-11.22S431.49,326.86,436.86,330Z" style="fill:#e0e0e0"></path><g style="opacity:0.15"><path d="M436.86,330c5.37,3.1,5.4,8.12.06,11.22s-14,3.09-19.36,0-5.4-8.12-.07-11.22S431.49,326.86,436.86,330Z"></path></g><path d="M456.07,260.65c-39.56,13-39.92,39.43-31,58.27,2.25,3.82,9.06,5.87,15-17.57l-10.39,1.33,12.11-6.14,3.15-9.4-10.1.75,12.81-5.39A191.94,191.94,0,0,1,456.07,260.65Z" style="fill:#C53F3F"></path><path d="M456.07,260.65c-39.56,13-39.92,39.43-31,58.27,2.25,3.82,9.06,5.87,15-17.57l-10.39,1.33,12.11-6.14,3.15-9.4-10.1.75,12.81-5.39A191.94,191.94,0,0,1,456.07,260.65Z" style="opacity:0.2"></path><path d="M444.88,267.27c-20.86,15.84-22.74,34-16.85,52.94C425.94,303.53,423.69,286.65,444.88,267.27Z" style="fill:#fff"></path><path d="M389.06,287.54c39,5.49,43.73,30.08,38.56,49.11-1.46,3.93-7.46,7-16.88-13.87l9.9-.49-12.29-3.7-4.5-8.24,9.53-1-12.83-2.89A178.34,178.34,0,0,0,389.06,287.54Z" style="fill:#C53F3F"></path><path d="M389.06,287.54c39,5.49,43.73,30.08,38.56,49.11-1.46,3.93-7.46,7-16.88-13.87l9.9-.49-12.29-3.7-4.5-8.24,9.53-1-12.83-2.89A178.34,178.34,0,0,0,389.06,287.54Z" style="fill:#fff;opacity:0.2"></path><path d="M400.58,291.84c22.07,11.29,26.84,27.88,24.5,46.51C424.24,322.46,423.54,306.37,400.58,291.84Z" style="fill:#fff"></path><path d="M467.49,296.75c-35.77.59-42.78,22.22-40.25,40,.88,3.7,5.94,7.11,16.76-10.62l-8.87-1.55,11.5-2,5-6.92-8.48-2L455,312.54A164.56,164.56,0,0,1,467.49,296.75Z" style="fill:#C53F3F"></path><path d="M456.62,299.35c-21.15,7.69-27.3,22.12-27.28,39.17C431.87,324.29,434.3,309.87,456.62,299.35Z" style="fill:#fff"></path></g><g id="freepik--Device--inject-570"><path d="M241.76,64.24h0a8.38,8.38,0,0,1,.89-2.23c.88-1.39,2.47-2.2,6.21-2.12a4.57,4.57,0,0,1,1.53.29l140.46,79.9a10.25,10.25,0,0,1,5.11,8.78V377.38c0,4.08-2.4,5.61-5.05,5.79a9.5,9.5,0,0,1-3.4-.44l0,0a3.33,3.33,0,0,1-.4-.16l-140.47-80a10.1,10.1,0,0,1-5.1-8.78V65.34A2.52,2.52,0,0,1,241.76,64.24Z" style="fill:#C53F3F"></path><path d="M241.76,64.24h0a8.38,8.38,0,0,1,.89-2.23c.88-1.39,2.47-2.2,6.21-2.12a4.57,4.57,0,0,1,1.53.29l140.46,79.9a10.25,10.25,0,0,1,5.11,8.78V377.38c0,4.08-2.4,5.61-5.05,5.79a9.5,9.5,0,0,1-3.4-.44l0,0a3.33,3.33,0,0,1-.4-.16l-140.47-80a10.1,10.1,0,0,1-5.1-8.78V65.34A2.52,2.52,0,0,1,241.76,64.24Z" style="opacity:0.2"></path><path d="M394.9,144.43a10,10,0,0,1,1.05,4.43V377.38c0,4.08-2.4,5.61-5.05,5.79a6.36,6.36,0,0,0,1-3.75V150.9a10,10,0,0,0-1.05-4.43c-.11-.23-.25-.45-.38-.67l3.9-2.25A9.59,9.59,0,0,1,394.9,144.43Z" style="opacity:0.2"></path><path d="M248.85,59.89a4.57,4.57,0,0,1,1.53.29l140.46,79.9a9.92,9.92,0,0,1,3.55,3.47l-3.9,2.25a10,10,0,0,0-3.68-3.68L246.35,62.23a4.83,4.83,0,0,0-1.53-.3,16.32,16.32,0,0,0-2.18.08C243.52,60.62,245.11,59.81,248.85,59.89Z" style="fill:#fff;opacity:0.2"></path><polygon points="247.9 71.38 385.24 150.65 385.24 366.13 247.9 286.86 247.9 71.38" style="fill:#455a64"></polygon><path d="M309.52,326.06a11.55,11.55,0,0,1,5.18,7.47c.35,2.67-1.42,3.66-3.95,2.2a11.6,11.6,0,0,1-5.19-7.47C305.22,325.59,307,324.6,309.52,326.06Z" style="fill:#C53F3F"></path><g style="opacity:0.4"><path d="M309.52,326.06a11.55,11.55,0,0,1,5.18,7.47c.35,2.67-1.42,3.66-3.95,2.2a11.6,11.6,0,0,1-5.19-7.47C305.22,325.59,307,324.6,309.52,326.06Z"></path></g></g><g id="freepik--Screen--inject-570"><path d="M211.14,101.32v-7a2.21,2.21,0,0,1,.24-1h0a7.94,7.94,0,0,1,.79-2c.77-1.22,2.18-1.93,5.47-1.87a4.42,4.42,0,0,1,1.34.26l123.72,70.37a9,9,0,0,1,4.5,7.74v8l-3.55,2Z" style="fill:#C53F3F"></path><path d="M343.64,177.94l3.55-2V376.15c0,3.59-2.11,5-4.45,5.1a8.6,8.6,0,0,1-3-.38l0,0a2.13,2.13,0,0,1-.35-.14L215.64,310.24a8.89,8.89,0,0,1-4.5-7.73V101.32Z" style="fill:#C53F3F"></path><path d="M346.27,164a9,9,0,0,1,.92,3.91V376.15c0,3.59-2.11,5-4.45,5.1a5.63,5.63,0,0,0,.9-3.3V169.68a8.81,8.81,0,0,0-.92-3.9c-.1-.2-.23-.39-.34-.59l3.44-2C346,163.46,346.13,163.71,346.27,164Z" style="opacity:0.4"></path><path d="M217.63,89.52a4.42,4.42,0,0,1,1.34.26l123.72,70.37a8.91,8.91,0,0,1,3.13,3.06l-3.44,2a8.83,8.83,0,0,0-3.24-3.24L215.43,91.58a4.42,4.42,0,0,0-1.35-.26,16.1,16.1,0,0,0-1.92.07C212.93,90.17,214.34,89.46,217.63,89.52Z" style="fill:#fff;opacity:0.2"></path><path d="M211.14,101.32v-7a2.21,2.21,0,0,1,.24-1h0a7.94,7.94,0,0,1,.79-2c.77-1.22,2.18-1.93,5.47-1.87a4.42,4.42,0,0,1,1.34.26l123.72,70.37a9,9,0,0,1,4.5,7.74v8l-3.55,2Z" style="fill:#fff;opacity:0.2"></path><path d="M343.64,177.94l3.55-2V376.15c0,3.59-2.11,5-4.45,5.1a8.6,8.6,0,0,1-3-.38l0,0a2.13,2.13,0,0,1-.35-.14L215.64,310.24a8.89,8.89,0,0,1-4.5-7.73V101.32Z" style="fill:#fff;opacity:0.7000000000000001"></path><path d="M332.45,176.82a12.41,12.41,0,0,1,5.63,9.76c0,3.6-2.55,5-5.67,3.25l-111-64.06a12.42,12.42,0,0,1-5.63-9.77c0-3.59,2.55-5,5.67-3.24Z" style="fill:#fff"></path><polygon points="226.09 120.67 224.79 124.48 223.59 123.79 222.83 120.58 222.03 122.89 220.83 122.2 219.55 116.89 220.71 117.56 221.5 120.94 222.35 118.51 223.38 119.11 224.18 122.51 225.02 120.05 226.09 120.67" style="fill:#C53F3F"></polygon><polygon points="232.81 124.55 231.51 128.36 230.31 127.67 229.55 124.46 228.75 126.77 227.55 126.08 226.28 120.78 227.43 121.44 228.22 124.82 229.07 122.39 230.1 122.99 230.89 126.38 231.74 123.93 232.81 124.55" style="fill:#C53F3F"></polygon><polygon points="239.53 128.43 238.23 132.25 237.03 131.55 236.28 128.34 235.47 130.65 234.27 129.96 233 124.66 234.15 125.32 234.95 128.7 235.79 126.27 236.82 126.86 237.62 130.26 238.46 127.81 239.53 128.43" style="fill:#C53F3F"></polygon><path d="M240.19,132a1.33,1.33,0,0,1,.65,1.1c0,.44-.28.58-.65.37a1.39,1.39,0,0,1-.65-1.12C239.54,131.88,239.83,131.76,240.19,132Z" style="fill:#C53F3F"></path><path d="M243.28,130.59a4.3,4.3,0,0,1,2.22,3.57c0,1.4-.91,1.75-2.23,1l-1.88-1.08,0-4.56Zm-.05,3.51c.68.39,1.13.19,1.13-.6a2.22,2.22,0,0,0-1.12-1.9l-.71-.41v2.5l.71.41" style="fill:#C53F3F"></path><path d="M248.1,133.28a4.55,4.55,0,0,1,2.2,3.65c0,1.37-.94,1.83-2.22,1.09a4.52,4.52,0,0,1-2.2-3.64C245.89,133,246.83,132.55,248.1,133.28Zm0,3.68c.6.35,1.07.1,1.07-.69a2.31,2.31,0,0,0-1.07-1.92c-.6-.35-1.07-.1-1.07.68a2.34,2.34,0,0,0,1.07,1.93" style="fill:#C53F3F"></path><polygon points="255.5 137.65 255.5 142.22 254.47 141.62 254.47 139.2 253.44 140.58 252.94 140.29 251.93 137.8 251.92 140.15 250.88 139.55 250.9 134.99 251.82 135.52 253.21 138.96 254.58 137.12 255.5 137.65" style="fill:#C53F3F"></polygon><path d="M258.7,139.49l1.74,5.58-1.17-.68-.31-1.06-1.67-1-.32.7-1.15-.66,1.77-3.55Zm-1.08,2.11,1,.59-.51-1.76-.51,1.17" style="fill:#C53F3F"></path><polygon points="261.89 141.34 261.88 145.9 260.76 145.25 260.78 140.69 261.89 141.34" style="fill:#C53F3F"></polygon><polygon points="266.47 143.98 266.46 148.54 265.54 148.01 263.79 144.57 263.79 147 262.68 146.36 262.7 141.8 263.62 142.34 265.37 145.78 265.38 143.35 266.47 143.98" style="fill:#C53F3F"></polygon><polygon points="271.05 146.63 271.04 151.19 270.11 150.65 268.37 147.21 268.36 149.64 267.26 149 267.27 144.44 268.2 144.98 269.94 148.42 269.95 145.99 271.05 146.63" style="fill:#C53F3F"></polygon><path d="M274.23,148.46,276,154l-1.16-.68-.31-1.06-1.68-1-.32.7-1.14-.66,1.76-3.55Zm-1.08,2.11,1,.59-.51-1.76-.51,1.17" style="fill:#C53F3F"></path><polygon points="280.92 152.32 280.91 156.89 279.88 156.29 279.88 153.87 278.85 155.25 278.35 154.96 277.34 152.47 277.33 154.82 276.3 154.22 276.31 149.66 277.23 150.2 278.62 153.63 279.99 151.79 280.92 152.32" style="fill:#C53F3F"></polygon><polygon points="284.84 154.59 284.83 155.58 282.83 154.42 282.83 155.2 284.59 156.22 284.59 157.18 282.83 156.16 282.83 157 284.9 158.19 284.9 159.19 281.71 157.35 281.72 152.79 284.84 154.59" style="fill:#C53F3F"></polygon><path d="M287.09,155.79a5.42,5.42,0,0,1,1.44,1.23l-.35.76a4.3,4.3,0,0,0-1.1-1c-.47-.28-.64-.2-.65,0,0,.7,2.26,1.48,2.25,3.16,0,.8-.58,1.14-1.76.46a5.88,5.88,0,0,1-1.67-1.47l.37-.74a4.53,4.53,0,0,0,1.31,1.21c.46.27.64.22.64,0,0-.72-2.25-1.5-2.24-3.19C285.33,155.44,285.91,155.11,287.09,155.79Z" style="fill:#C53F3F"></path><path d="M289.72,160.56a1.32,1.32,0,0,1,.64,1.11c0,.43-.28.57-.65.36a1.38,1.38,0,0,1-.64-1.11C289.07,160.47,289.35,160.35,289.72,160.56Z" style="fill:#C53F3F"></path><path d="M292.79,159.09a4.28,4.28,0,0,1,1.71,1.84l-.71.34a2.53,2.53,0,0,0-.94-1.08c-.65-.38-1.11-.11-1.11.67a2.32,2.32,0,0,0,1.1,1.94.77.77,0,0,0,.94,0l.71,1.16c-.38.33-1,.29-1.71-.13a4.43,4.43,0,0,1-2.17-3.63C290.61,158.81,291.54,158.36,292.79,159.09Z" style="fill:#C53F3F"></path><path d="M296.92,161.47a4.5,4.5,0,0,1,2.2,3.65c0,1.37-.94,1.83-2.21,1.09a4.49,4.49,0,0,1-2.2-3.64C294.71,161.2,295.65,160.74,296.92,161.47Zm0,3.68c.61.35,1.07.1,1.08-.69a2.33,2.33,0,0,0-1.07-1.92c-.6-.35-1.07-.1-1.08.68a2.34,2.34,0,0,0,1.07,1.93" style="fill:#C53F3F"></path><polygon points="304.33 165.84 304.33 170.41 303.3 169.81 303.29 167.39 302.26 168.77 301.76 168.48 300.75 165.98 300.75 168.34 299.71 167.74 299.72 163.18 300.65 163.71 302.03 167.15 303.4 165.31 304.33 165.84" style="fill:#C53F3F"></polygon><g style="opacity:0.2"><polygon points="226.09 120.67 224.79 124.48 223.59 123.79 222.83 120.58 222.03 122.89 220.83 122.2 219.55 116.89 220.71 117.56 221.5 120.94 222.35 118.51 223.38 119.11 224.18 122.51 225.02 120.05 226.09 120.67" style="fill:#fff"></polygon><polygon points="232.81 124.55 231.51 128.36 230.31 127.67 229.55 124.46 228.75 126.77 227.55 126.08 226.28 120.78 227.43 121.44 228.22 124.82 229.07 122.39 230.1 122.99 230.89 126.38 231.74 123.93 232.81 124.55" style="fill:#fff"></polygon><polygon points="239.53 128.43 238.23 132.25 237.03 131.55 236.28 128.34 235.47 130.65 234.27 129.96 233 124.66 234.15 125.32 234.95 128.7 235.79 126.27 236.82 126.86 237.62 130.26 238.46 127.81 239.53 128.43" style="fill:#fff"></polygon><path d="M240.19,132a1.33,1.33,0,0,1,.65,1.1c0,.44-.28.58-.65.37a1.39,1.39,0,0,1-.65-1.12C239.54,131.88,239.83,131.76,240.19,132Z" style="fill:#fff"></path><path d="M243.28,130.59a4.3,4.3,0,0,1,2.22,3.57c0,1.4-.91,1.75-2.23,1l-1.88-1.08,0-4.56Zm-.05,3.51c.68.39,1.13.19,1.13-.6a2.22,2.22,0,0,0-1.12-1.9l-.71-.41v2.5l.71.41" style="fill:#fff"></path><path d="M248.1,133.28a4.55,4.55,0,0,1,2.2,3.65c0,1.37-.94,1.83-2.22,1.09a4.52,4.52,0,0,1-2.2-3.64C245.89,133,246.83,132.55,248.1,133.28Zm0,3.68c.6.35,1.07.1,1.07-.69a2.31,2.31,0,0,0-1.07-1.92c-.6-.35-1.07-.1-1.07.68a2.34,2.34,0,0,0,1.07,1.93" style="fill:#fff"></path><polygon points="255.5 137.65 255.5 142.22 254.47 141.62 254.47 139.2 253.44 140.58 252.94 140.29 251.93 137.8 251.92 140.15 250.88 139.55 250.9 134.99 251.82 135.52 253.21 138.96 254.58 137.12 255.5 137.65" style="fill:#fff"></polygon><path d="M258.7,139.49l1.74,5.58-1.17-.68-.31-1.06-1.67-1-.32.7-1.15-.66,1.77-3.55Zm-1.08,2.11,1,.59-.51-1.76-.51,1.17" style="fill:#fff"></path><polygon points="261.89 141.34 261.88 145.9 260.76 145.25 260.78 140.69 261.89 141.34" style="fill:#fff"></polygon><polygon points="266.47 143.98 266.46 148.54 265.54 148.01 263.79 144.57 263.79 147 262.68 146.36 262.7 141.8 263.62 142.34 265.37 145.78 265.38 143.35 266.47 143.98" style="fill:#fff"></polygon><polygon points="271.05 146.63 271.04 151.19 270.11 150.65 268.37 147.21 268.36 149.64 267.26 149 267.27 144.44 268.2 144.98 269.94 148.42 269.95 145.99 271.05 146.63" style="fill:#fff"></polygon><path d="M274.23,148.46,276,154l-1.16-.68-.31-1.06-1.68-1-.32.7-1.14-.66,1.76-3.55Zm-1.08,2.11,1,.59-.51-1.76-.51,1.17" style="fill:#fff"></path><polygon points="280.92 152.32 280.91 156.89 279.88 156.29 279.88 153.87 278.85 155.25 278.35 154.96 277.34 152.47 277.33 154.82 276.3 154.22 276.31 149.66 277.23 150.2 278.62 153.63 279.99 151.79 280.92 152.32" style="fill:#fff"></polygon><polygon points="284.84 154.59 284.83 155.58 282.83 154.42 282.83 155.2 284.59 156.22 284.59 157.18 282.83 156.16 282.83 157 284.9 158.19 284.9 159.19 281.71 157.35 281.72 152.79 284.84 154.59" style="fill:#fff"></polygon><path d="M287.09,155.79a5.42,5.42,0,0,1,1.44,1.23l-.35.76a4.3,4.3,0,0,0-1.1-1c-.47-.28-.64-.2-.65,0,0,.7,2.26,1.48,2.25,3.16,0,.8-.58,1.14-1.76.46a5.88,5.88,0,0,1-1.67-1.47l.37-.74a4.53,4.53,0,0,0,1.31,1.21c.46.27.64.22.64,0,0-.72-2.25-1.5-2.24-3.19C285.33,155.44,285.91,155.11,287.09,155.79Z" style="fill:#fff"></path><path d="M289.72,160.56a1.32,1.32,0,0,1,.64,1.11c0,.43-.28.57-.65.36a1.38,1.38,0,0,1-.64-1.11C289.07,160.47,289.35,160.35,289.72,160.56Z" style="fill:#fff"></path><path d="M292.79,159.09a4.28,4.28,0,0,1,1.71,1.84l-.71.34a2.53,2.53,0,0,0-.94-1.08c-.65-.38-1.11-.11-1.11.67a2.32,2.32,0,0,0,1.1,1.94.77.77,0,0,0,.94,0l.71,1.16c-.38.33-1,.29-1.71-.13a4.43,4.43,0,0,1-2.17-3.63C290.61,158.81,291.54,158.36,292.79,159.09Z" style="fill:#fff"></path><path d="M296.92,161.47a4.5,4.5,0,0,1,2.2,3.65c0,1.37-.94,1.83-2.21,1.09a4.49,4.49,0,0,1-2.2-3.64C294.71,161.2,295.65,160.74,296.92,161.47Zm0,3.68c.61.35,1.07.1,1.08-.69a2.33,2.33,0,0,0-1.07-1.92c-.6-.35-1.07-.1-1.08.68a2.34,2.34,0,0,0,1.07,1.93" style="fill:#fff"></path><polygon points="304.33 165.84 304.33 170.41 303.3 169.81 303.29 167.39 302.26 168.77 301.76 168.48 300.75 165.98 300.75 168.34 299.71 167.74 299.72 163.18 300.65 163.71 302.03 167.15 303.4 165.31 304.33 165.84" style="fill:#fff"></polygon></g><polygon points="330.9 178.66 332 181.89 334.5 183.75 332.69 184.72 333.1 187.82 330.88 185.19 328.65 185.25 329.08 182.64 327.29 179.59 329.78 180.61 330.9 178.66" style="fill:#C53F3F"></polygon><polygon points="330.9 178.66 332 181.89 334.5 183.75 332.69 184.72 333.1 187.82 330.88 185.19 328.65 185.25 329.08 182.64 327.29 179.59 329.78 180.61 330.9 178.66" style="fill:#fff;opacity:0.2"></polygon><path d="M272.49,165.54c-14.15-8.17-26.61-6.95-33.8,1.62.44.38.93.55,1.37.93a8.25,8.25,0,0,1,1.52,2.37,4.81,4.81,0,0,0,1.69,2.07c0-.5.38-.62.79-.38a1.56,1.56,0,0,1,.27.2c.1-.5-.38-1.21-.56-1.84-.23-.8.09-1.4.59-1.54a1.26,1.26,0,0,1,1.08.23,2.07,2.07,0,0,1,.8,1.3,1,1,0,0,0,.29.64,2,2,0,0,1,.5.79,1.6,1.6,0,0,1,.5-1,.63.63,0,0,1,.6.05,1.15,1.15,0,0,1,.44.48c.29.56,0,1,0,1.5a2.3,2.3,0,0,0,.23,1.07,1.25,1.25,0,0,0,.35.45c.24.14.43-.07.49-.33.12-.63-.08-1.47,0-2.11a2.73,2.73,0,0,1,.33-.84c.1-.19.24-.39.55-.27a1.56,1.56,0,0,1,.53.76,5.76,5.76,0,0,0,.39,1,2.24,2.24,0,0,0,.74.68,3.94,3.94,0,0,0,1.12.39,3.67,3.67,0,0,1,1.16.41,4.14,4.14,0,0,1,1.52,1.76,3.18,3.18,0,0,1,.27,2.1c-.19.58-.67.89-.7,1.59a2.51,2.51,0,0,1-.05.74.41.41,0,0,1-.33.27,2,2,0,0,1-1.44-.36,8.83,8.83,0,0,1-1-.67,3.08,3.08,0,0,1-.62-.58,1.35,1.35,0,0,1-.31-.8.74.74,0,0,1,.14-.34,1.94,1.94,0,0,0,.26-1.17,2.22,2.22,0,0,0-.85-1.47.6.6,0,0,0-.92.32,3.58,3.58,0,0,0,0,1.59,1.56,1.56,0,0,1,0,.52c-.06.36-.45.36-.87.14a4.35,4.35,0,0,1-.47-.32l-.5-.33a1.25,1.25,0,0,0-1.67.23,3.14,3.14,0,0,0-.42,2,4.18,4.18,0,0,0,.84,2.43c.43.52,1,.8,1.37,1.39.55.87.39,1.93,1,2.77a1.69,1.69,0,0,0,.51.49.67.67,0,0,0,.55.09c.3-.11.39-.58.21-1.07s-.61-1.12-.47-1.45a.48.48,0,0,1,.23-.19,1.88,1.88,0,0,0,.83-2.07c-.1-.61-.39-1.35-.19-1.76s.55-.25,1,0a4.84,4.84,0,0,1,1.48,1.41,3.07,3.07,0,0,0,.94,1.09.69.69,0,0,0,.38,0,2.07,2.07,0,0,1,1.4.32,4.63,4.63,0,0,1,.65.47,8.33,8.33,0,0,1,1.79,2.3c.39.72.71,1.46,1.08,2.18a14.27,14.27,0,0,0,2.14,3.07,9.57,9.57,0,0,1,.83.95,2.47,2.47,0,0,1,.5,1.13.91.91,0,0,1-.53.92,1.2,1.2,0,0,1-.82.19,1.24,1.24,0,0,1-.4-.15,1.81,1.81,0,0,1-.57-.54,6.94,6.94,0,0,1-.58-1.88,4.27,4.27,0,0,0-1.17-1.79,5,5,0,0,0-.49-.35,2.31,2.31,0,0,0-1-.32.59.59,0,0,0-.56.21.76.76,0,0,0,0,.77,3,3,0,0,0,1,1,3.35,3.35,0,0,1,1.11,2.41.72.72,0,0,1-.2.52c-.17.17-.46.13-.74.05a4.19,4.19,0,0,1-1-.42,6.05,6.05,0,0,1-1.05-.76c0,.42-.13.91-.4,1.06a3.34,3.34,0,0,1-.92.17c-.82.17-1.29,1-1.69,1.84a4.64,4.64,0,0,0-.41,1.1c-.34,1.52.31,3.65,1.06,5.61a3.84,3.84,0,0,1,.32,1.25c0,.34-.26.57-.63.34a3.1,3.1,0,0,1-.63-1,12.89,12.89,0,0,0-.87-1.22,20.09,20.09,0,0,0-1.15-1.78,1.94,1.94,0,0,0-.52-.44c-.34-.2-.66-.22-.75.1s0,.88-.42.85a3,3,0,0,1-.5-.46,1.76,1.76,0,0,0-.29-.21.8.8,0,0,0-1.15.18,2.73,2.73,0,0,0,0,1.94,13.51,13.51,0,0,0,.93,2.21,4.11,4.11,0,0,0,.64,1.07,3,3,0,0,0,.79.57c.48.25,1.07.41,1.15-.08s-.3-1.15-.06-1.37a.31.31,0,0,1,.27,0,.66.66,0,0,1,.28.11,2.36,2.36,0,0,1,1,1.64,5.6,5.6,0,0,1-.16,1.11,5.35,5.35,0,0,0,1.93,2.4,6.51,6.51,0,0,1,2.07,1.9,6.58,6.58,0,0,0,.63,1,1.44,1.44,0,0,0,.34.28,2.49,2.49,0,0,0,.57.22,2.8,2.8,0,0,1,.58.23,1.61,1.61,0,0,1,.34.27,4.63,4.63,0,0,1,.6,1,2,2,0,0,0,.7.89c.24.11.43,0,.65,0a.77.77,0,0,1,.31.11,3.66,3.66,0,0,1,1.16,1.42,8.07,8.07,0,0,0,1.23,2,2.18,2.18,0,0,0,.47.36,4.56,4.56,0,0,0,1.52.42,6,6,0,0,1,1.7.66,2.29,2.29,0,0,1,.92.91,1.5,1.5,0,0,1-.16,1.67,1.59,1.59,0,0,0-.44,1.51c.49,1.81,1,3.93-.07,4.41-.17.07-.37.13-.43.35a1.46,1.46,0,0,0,.06.67,10.22,10.22,0,0,1,.41,2.93c-.06.6-.26,1.08-.36,1.66a7.41,7.41,0,0,0,.49,3.77,12.43,12.43,0,0,1,.51,1.44c.08.35.08.67.14,1a5.59,5.59,0,0,0,1.66,3,12,12,0,0,1,1.08,1c.33.38.59,1,.43,1.3s-.58.11-1-.14l-2-1.21a9,9,0,0,1-1.93-1.39,4.6,4.6,0,0,1-1.3-2.3,4.78,4.78,0,0,0-.13-.89c-.23-.7-.89-1.23-1.18-1.92a8.23,8.23,0,0,1-.3-1.46,10.29,10.29,0,0,0-1.38-2.5,11.09,11.09,0,0,1-1-2.15c-.42-1.26-.63-2.69-1.5-3.71a7,7,0,0,0-1.87-1.37,3.57,3.57,0,0,1-1.58-1.87c-.1-.33-.09-.64-.2-1-.32-.93-1.28-1.42-1.87-2.25a3.88,3.88,0,0,1-.64-2.39,12,12,0,0,0,.09-2.19c-.06-.5-.22-1-.32-1.56-.3-1.65.1-3.06,1-3.6a8.18,8.18,0,0,0-2.12-1.83,5.06,5.06,0,0,0-.46-.24,14.61,14.61,0,0,1-1.77-.72,3,3,0,0,1-.4-.26,8,8,0,0,1-2-3,23.73,23.73,0,0,0-1.59-3.29,13.79,13.79,0,0,0-2.94-3.05,2.49,2.49,0,0,0-.48-.31,1,1,0,0,0-.37-.06,1.56,1.56,0,0,1-.57-.2,3.59,3.59,0,0,1-1.31-1.52,6.06,6.06,0,0,0-1-2.05c-.2-.09-.33.08-.33.31a2.5,2.5,0,0,0,.21.75,18.62,18.62,0,0,0,2,3.57c.32.46.71,1,.62,1.44s-.39.28-.72.09a2.66,2.66,0,0,1-.51-.39,8.46,8.46,0,0,1-2.2-4c-.3-1.41-.13-2.78-.88-4.16-.39-.72-1-1.31-1.32-2a3.15,3.15,0,0,1-.26-1.88,4,4,0,0,1,.58-1.35c.6-1,.06-3.31-.32-5a46.7,46.7,0,0,1-1.05-5.07,19.8,19.8,0,0,1,.26-4.93c.06-.49.14-1,.21-1.47a37.5,37.5,0,0,0-3.54,16.81c-.07,25.48,17.85,56.53,40,69.34s40.22,2.51,40.29-23S294.67,178.34,272.49,165.54ZM263,188a.89.89,0,0,1-.33,0l-.12-.06a.71.71,0,0,1-.24-.22l-.11-.18-.16-.13-.18-.12-.56-.28-.05,0a1.88,1.88,0,0,1-.64-.59l-.12-.24v-.2a2.12,2.12,0,0,1,.07-.45l.07-.19c.1-.15.33-.12.55,0a1.18,1.18,0,0,1,.32.27,1.46,1.46,0,0,1,.27.45,2,2,0,0,0,.46.65c.14.12.28.26.41.39a2.78,2.78,0,0,1,.27.33,1.21,1.21,0,0,1,.17.43v.09Zm3.21-9.76a2.82,2.82,0,0,1-1.66,0c-.84-.1-1.67,0-2,.77a5.12,5.12,0,0,0-.3,1.24,1.82,1.82,0,0,1-.71,1.3,1,1,0,0,1-1-.09,2,2,0,0,1-.5-.43,4,4,0,0,1-.77-1.89,4.89,4.89,0,0,1-1.84-2c-.25-.59-.24-1.18-.45-1.77s-.73-1.33-.93-2,0-1.46.55-1.48c.21,0,.5,0,.44-.3a1.22,1.22,0,0,0-.24-.43,1.82,1.82,0,0,1-.15-1.66,4.22,4.22,0,0,0,.55-1.24,1.85,1.85,0,0,0-.73-1.66,1.35,1.35,0,0,0-.54-.14,3.3,3.3,0,0,1-.92-.4l-.29-.17-.36-.22a2.14,2.14,0,0,0-1.07-.38c-.58,0-1,.32-1.55,0a2.88,2.88,0,0,1-1.26-2.71c.42-1.44,2.3-1.38,3.73-.56a22.45,22.45,0,0,1,1.84,1.37,18.19,18.19,0,0,0,2,1.34c1.44.83,2.89,1.48,4.34,2.29l.14.09a3.64,3.64,0,0,1,1.09.87,4.71,4.71,0,0,1,.74,1.38,7.47,7.47,0,0,1,.5,3.22,7.89,7.89,0,0,0-.11,1.21,2.53,2.53,0,0,0,.43,1.37c.33.46.8.72,1.12,1.2A1.37,1.37,0,0,1,266.22,178.21Zm32.88,61.14a1.58,1.58,0,0,0-.75.65,7.53,7.53,0,0,0-.13,1.69,1.17,1.17,0,0,1-.8,1.1,2.66,2.66,0,0,1-1.08,0l-.84-.15a.61.61,0,0,1-.25-.08l0,0a1.43,1.43,0,0,1-.41-.56,1.19,1.19,0,0,1-.16-.39.37.37,0,0,1,0-.24c.36-1,1.43-1.27,1.5-2.5,0-.24,0-.51,0-.74s.12-.43.31-.44a.75.75,0,0,1,.31.08l1,.42c.5.2.76.18,1.05-.11a.57.57,0,0,1,.68-.17l.09.05C300.46,238.35,299.29,239.24,299.1,239.35Zm3.76-18.52c-.28.76.14,2.06-.11,2.85a1.45,1.45,0,0,1-.38.61,4,4,0,0,1-2.31,1.29.87.87,0,0,1-.6-.08,2.69,2.69,0,0,1-.64-.66,5.89,5.89,0,0,1-1.14-2.07c-.2-1,.38-1.51.59-2.28a.69.69,0,0,0,0-.41,1.93,1.93,0,0,0-.21-.4l-1.69-2.75a3.32,3.32,0,0,0-.75-1c-.16.77-.31,1.53-.47,2.29a4.28,4.28,0,0,0-.11,1.31,8.69,8.69,0,0,0,1.55,3.38l1.62,2.52c-.07,1.21.64,2.82.57,4a3.1,3.1,0,0,1-1.45,2.2c-.8.69-2.24,1-2.37,2.42l-.39,4a3.64,3.64,0,0,1-.2,1.08,2.19,2.19,0,0,1-1.05.95,11.73,11.73,0,0,0-3.95,3.83c-.06.11-.13.21-.25.21s-.18,0-.37-.14a14,14,0,0,1-1.44-1.09,2.11,2.11,0,0,1-.42-.47,2,2,0,0,1-.22-.56c-.4-1.37-.79-2.74-1.19-4.1a5.36,5.36,0,0,1-.28-1.46,2.78,2.78,0,0,1,.25-1c.44-1,1.64-1.86,1.44-3.35s-.76-3.11-.93-4.59a13.7,13.7,0,0,0-.49-3.47A3,3,0,0,0,285,223a1.78,1.78,0,0,0-.51-.42,4.74,4.74,0,0,0-.52-.24L281,221.14a10.31,10.31,0,0,1-1.32-.61c-.15-.08-.29-.18-.44-.28a4.9,4.9,0,0,1-1.54-1.78,9.73,9.73,0,0,0-1-2.12,5.3,5.3,0,0,0-.71-.65,6.59,6.59,0,0,1-1.3-1.46,1.74,1.74,0,0,1-.3-.59.94.94,0,0,1,.05-.48c.25-.87.69-1.76,1-2.57-.12-.57-.23-1.14-.35-1.7a3.2,3.2,0,0,1,0-2.11c.56-.8,2.25.31,2.74-.59.29-.54,0-1.7.56-1.9a1,1,0,0,1,.66.11c1.56.58,3.21,1.86,4.75,2.27a2.58,2.58,0,0,1,.6.22l.15.1a2.77,2.77,0,0,1,.51.56c.7.89,1.22,1.72,1.92,2.61,2.48,1.21,5,2.37,7.44,3.46.25.12.54.23.7.08a.81.81,0,0,0,.13-.43,4.75,4.75,0,0,0-.14-1.42.85.85,0,0,0-.28-.48l-.15-.06-1-.32a1.45,1.45,0,0,1-.26-.11.48.48,0,0,1-.15-.11,1.5,1.5,0,0,1-.26-.38,4.51,4.51,0,0,1-.6-2.05c0-.62.31-1.22.8-1.21a6.63,6.63,0,0,0-1.43-2.82c-.41-.41-.85-.66-1.27-1a1.45,1.45,0,0,1-.32-.37,1.34,1.34,0,0,1-.14-.38c-.13-.42-.26-.83-.46-1.41l-.23-.2-.39-.2a2.7,2.7,0,0,1-.34-.17,1.61,1.61,0,0,1-.46-.38c-.31-.36-.5-.93-1-1.24-.15,0,0,.32,0,.54s-.07.74-.36.57a4.77,4.77,0,0,1-1.2-1.46A18.69,18.69,0,0,1,284,194.9a2.85,2.85,0,0,0-.2-.51,2.51,2.51,0,0,0-.27-.37,4.7,4.7,0,0,0-1.19-1.14.38.38,0,0,0-.23-.08c-.2,0-.18.38,0,.67.42,1,1.53,1.52,1.82,2.49.17.53-.07,1-.46.88a1,1,0,0,1-.3-.13l-.33-.21a1,1,0,0,1-.33-.35c-.14-.3.08-.46.14-.69a1.25,1.25,0,0,0-.2-.87,4.1,4.1,0,0,0-.59-.78c-.59-.68-1.21-1.31-1.83-1.9a3.13,3.13,0,0,0-.55-.41.74.74,0,0,0-.51,0,7,7,0,0,0-1.7.91,2.28,2.28,0,0,0-1.28,2.11c0,.2,0,.42-.06.51a.3.3,0,0,1-.25,0,2.74,2.74,0,0,1-1.16-.32,2.12,2.12,0,0,1-.64-.6,5.4,5.4,0,0,1-.4-.75c-.41-.92-.83-1.84-1.25-2.76A2,2,0,0,1,272,190c0-.27.19-.37.37-.45a3.25,3.25,0,0,1,1.15-.38c.94-.07,2.07.56,3.1.79l.19,0,.06-.13a1.32,1.32,0,0,0-.05-.67c-.44-.25-.83-.11-1.28-.36a2,2,0,0,1-.87-1.28c-.1-.5.09-.9.44-.92a1.37,1.37,0,0,1,.69.23l.3.19a2.61,2.61,0,0,0,.28.17,1.14,1.14,0,0,0,.76.22c.46-.11.47-.87.71-1.32s.91-.5,1.53-.14a2.83,2.83,0,0,1,.84.76.44.44,0,0,1,.57,0,1.2,1.2,0,0,1,.26.21c.15.17.27.39.43.54a.83.83,0,0,0,.19.15.65.65,0,0,0,.43.1,1.71,1.71,0,0,0,.48-.21,4.18,4.18,0,0,1,.79-.4,1,1,0,0,0,.5-.28.75.75,0,0,0,.06-.72c-.08-.18-.18-.33-.27-.5-.31-.58-.35-1.28-.77-1.74a1.21,1.21,0,0,0-.32-.25,1.34,1.34,0,0,0-.24-.12l-.23-.12a1.46,1.46,0,0,1-.32-.25,2.85,2.85,0,0,1-.56-1.31,2.79,2.79,0,0,0-.26,2.06,9.16,9.16,0,0,1,.23.94c0,.3-.07.57-.29.55a.45.45,0,0,1-.18-.07,3.53,3.53,0,0,1-.62-.56,3.38,3.38,0,0,0-.57-.41l-.36-.19-.36-.2a2.36,2.36,0,0,1-.65-.51,2.67,2.67,0,0,1-.7-1.39v-.25c0-.08.1-.1.16-.14.34-.23.39-.81.46-1.33a10,10,0,0,1,.42-1.81l.07-.11.16.06.45.27c.42.25.85.46,1.27.67a1.27,1.27,0,0,0,.56.15c.13,0,.22-.07.35-.09a.85.85,0,0,1,.53.12,1.67,1.67,0,0,1,.39.33,5.11,5.11,0,0,1,.86,1.86,3.15,3.15,0,0,0,1.06,1.69c.1.06.21.1.28.05s.1-.29.17-.43c.22-.45,1.25.33,1.47-.14-.23-.31-.5-.56-.72-.88s-.36-.79-.18-.94.4,0,.62.15a7.78,7.78,0,0,0,3.39,1.1,3.39,3.39,0,0,1,1.38.21,1.15,1.15,0,0,1,.25.12,7.88,7.88,0,0,1,1.31,1.08,26.5,26.5,0,0,1,3.47,3.75c1.31,1.84,1.9,3.93,2.89,6a11.19,11.19,0,0,0,2,2.79,4.2,4.2,0,0,1,.48.55,3.44,3.44,0,0,1,.39.85l.81,2.22a13.4,13.4,0,0,1,.63,2.09,8.23,8.23,0,0,1,.07,1.55,21.35,21.35,0,0,1-1,5.47,7.51,7.51,0,0,1,.29,2.13,4,4,0,0,1-.34,1.27c-.5,1.24-1,2.49-1.49,3.75a4.34,4.34,0,0,0-.22,3.3c.33.25.66.5,1,.76a2.5,2.5,0,0,0,.63-1.64c0-.52.06-1.21.51-1.11a.47.47,0,0,1,.15.06,2.85,2.85,0,0,1,.82,1.08,3.27,3.27,0,0,1,.28.64C303.63,220,303.07,220.28,302.86,220.83Z" style="fill:#C53F3F"></path><path d="M262.64,187.06c-.13-.13-.27-.27-.41-.39a2,2,0,0,1-.46-.65,1.46,1.46,0,0,0-.27-.45,1.18,1.18,0,0,0-.32-.27c-.22-.12-.45-.15-.55,0l-.07.19a2.12,2.12,0,0,0-.07.45v.2l.12.24a1.88,1.88,0,0,0,.64.59l.05,0,.56.28.18.12.16.13.11.18a.71.71,0,0,0,.24.22l.12.06a.89.89,0,0,0,.33,0l.08-.06v-.09a1.21,1.21,0,0,0-.17-.43A2.78,2.78,0,0,0,262.64,187.06Z" style="fill:#C53F3F"></path><path d="M251.71,165.29c.55.32,1,0,1.55,0a2.14,2.14,0,0,1,1.07.38l.36.22.29.17a3.3,3.3,0,0,0,.92.4,1.47,1.47,0,0,1,.57.15,1.87,1.87,0,0,1,.7,1.65,4.48,4.48,0,0,1-.54,1.24,1.79,1.79,0,0,0,.14,1.66,1.22,1.22,0,0,1,.24.43c.06.29-.23.29-.44.3-.53,0-.79.7-.55,1.48s.69,1.32.93,2,.2,1.18.45,1.77a4.89,4.89,0,0,0,1.84,2A4,4,0,0,0,260,181a2,2,0,0,0,.5.43,1,1,0,0,0,1,.09,1.82,1.82,0,0,0,.71-1.3,5.12,5.12,0,0,1,.3-1.24c.35-.75,1.18-.87,2-.77a2.82,2.82,0,0,0,1.66,0,1.37,1.37,0,0,0,.08-1.85c-.32-.48-.79-.74-1.12-1.2a2.53,2.53,0,0,1-.43-1.37,7.89,7.89,0,0,1,.11-1.21,7.47,7.47,0,0,0-.5-3.22,4.71,4.71,0,0,0-.74-1.38,3.64,3.64,0,0,0-1.09-.87l-.14-.09c-1.45-.81-2.9-1.46-4.34-2.29a18.19,18.19,0,0,1-2-1.34,21.79,21.79,0,0,0-1.86-1.38c-1.41-.81-3.29-.87-3.71.57a2.88,2.88,0,0,0,1.26,2.71Z" style="fill:#C53F3F"></path><path d="M299.68,237.9l-.09-.05a.57.57,0,0,0-.68.17c-.29.29-.55.31-1.05.11l-1-.42a.75.75,0,0,0-.31-.08c-.19,0-.28.21-.31.44s0,.5,0,.74c-.07,1.23-1.14,1.49-1.5,2.5a.37.37,0,0,0,0,.24,1.19,1.19,0,0,0,.16.39,1.43,1.43,0,0,0,.41.56l0,0a.61.61,0,0,0,.25.08l.84.15a2.66,2.66,0,0,0,1.08,0,1.17,1.17,0,0,0,.8-1.1,7.53,7.53,0,0,1,.13-1.69,1.58,1.58,0,0,1,.75-.65C299.29,239.24,300.46,238.35,299.68,237.9Z" style="fill:#C53F3F"></path><path d="M303.42,219.19a3.27,3.27,0,0,0-.28-.64,2.85,2.85,0,0,0-.82-1.08.47.47,0,0,0-.15-.06c-.45-.1-.48.59-.51,1.11a2.5,2.5,0,0,1-.63,1.64c-.32-.26-.65-.51-1-.76a4.34,4.34,0,0,1,.22-3.3c.49-1.26,1-2.51,1.49-3.75a4.29,4.29,0,0,0,.35-1.27,7.92,7.92,0,0,0-.3-2.13,21.35,21.35,0,0,0,1-5.47,8.23,8.23,0,0,0-.07-1.55,13.4,13.4,0,0,0-.63-2.09l-.81-2.22a3.44,3.44,0,0,0-.39-.85,4.2,4.2,0,0,0-.48-.55,11.19,11.19,0,0,1-2-2.79c-1-2-1.58-4.13-2.89-6a26.5,26.5,0,0,0-3.47-3.75,7.88,7.88,0,0,0-1.31-1.08,1.15,1.15,0,0,0-.25-.12,3.39,3.39,0,0,0-1.38-.21,7.78,7.78,0,0,1-3.39-1.1c-.22-.12-.48-.27-.62-.15s0,.62.18.94.49.57.72.88c-.22.47-1.25-.31-1.47.14-.07.14-.06.36-.17.43s-.18,0-.28-.05a3.15,3.15,0,0,1-1.06-1.69,5.11,5.11,0,0,0-.86-1.86,1.67,1.67,0,0,0-.39-.33.85.85,0,0,0-.53-.12c-.13,0-.22.08-.35.09a1.27,1.27,0,0,1-.56-.15c-.42-.21-.85-.42-1.27-.67l-.45-.27-.16-.06-.07.11a10,10,0,0,0-.42,1.81c-.07.52-.12,1.1-.46,1.33-.06,0-.13.06-.16.14V182a2.67,2.67,0,0,0,.7,1.39,2.36,2.36,0,0,0,.65.51l.36.2.36.19a3.38,3.38,0,0,1,.57.41,3.53,3.53,0,0,0,.62.56.45.45,0,0,0,.18.07c.22,0,.32-.25.29-.55a9.16,9.16,0,0,0-.23-.94,2.79,2.79,0,0,1,.26-2.06,2.85,2.85,0,0,0,.56,1.31,1.46,1.46,0,0,0,.32.25l.23.12a1.34,1.34,0,0,1,.24.12,1.46,1.46,0,0,1,.32.25c.42.46.46,1.16.77,1.74.09.17.19.32.27.5a.75.75,0,0,1-.06.72,1,1,0,0,1-.5.28,4.18,4.18,0,0,0-.79.4,1.71,1.71,0,0,1-.48.21.65.65,0,0,1-.43-.1.83.83,0,0,1-.19-.15c-.16-.15-.28-.37-.43-.54a1.2,1.2,0,0,0-.26-.21.44.44,0,0,0-.57,0,2.83,2.83,0,0,0-.84-.76c-.62-.36-1.26-.35-1.53.14s-.25,1.21-.71,1.32a1.08,1.08,0,0,1-.76-.22,2.61,2.61,0,0,1-.28-.17l-.3-.19a1.37,1.37,0,0,0-.69-.23c-.35,0-.54.42-.44.92a2.07,2.07,0,0,0,.88,1.29c.44.24.83.1,1.28.36a1.38,1.38,0,0,1,0,.66l-.06.13-.19,0c-1-.23-2.16-.86-3.1-.79a3.25,3.25,0,0,0-1.15.38c-.18.08-.36.18-.37.45a2,2,0,0,0,.21.68c.42.92.84,1.84,1.25,2.76a5.4,5.4,0,0,0,.4.75,2.12,2.12,0,0,0,.64.6,2.74,2.74,0,0,0,1.16.32.3.3,0,0,0,.25,0c.1-.09.07-.31.06-.51a2.28,2.28,0,0,1,1.28-2.11,7,7,0,0,1,1.7-.91.77.77,0,0,1,.62.05,3.37,3.37,0,0,1,.44.35c.62.59,1.24,1.22,1.83,1.9a4.1,4.1,0,0,1,.59.78,1.25,1.25,0,0,1,.2.87c-.06.23-.28.39-.14.69a1,1,0,0,0,.33.35l.33.21a1,1,0,0,0,.3.13c.39.08.63-.35.46-.88-.29-1-1.4-1.53-1.82-2.49-.13-.29-.15-.66,0-.67a.38.38,0,0,1,.23.08,4.7,4.7,0,0,1,1.19,1.14,2.51,2.51,0,0,1,.27.37,2.85,2.85,0,0,1,.2.51,18.69,18.69,0,0,0,1.74,3.68,4.6,4.6,0,0,0,1.23,1.47c.26.16.42-.25.33-.58s-.17-.53.11-.48c.35.25.54.82.85,1.18a1.61,1.61,0,0,0,.46.38,2.7,2.7,0,0,0,.34.17c.13.07.26.13.48.26l.21.3.39,1.25a1.24,1.24,0,0,0,.14.38,1.45,1.45,0,0,0,.32.37c.42.38.86.63,1.27,1a6.63,6.63,0,0,1,1.43,2.82c-.49,0-.8.59-.8,1.21a4.51,4.51,0,0,0,.6,2.05,1.5,1.5,0,0,0,.26.38.48.48,0,0,0,.15.11,1.45,1.45,0,0,0,.26.11l1,.32a.65.65,0,0,1,.26.15.85.85,0,0,1,.17.39,4.75,4.75,0,0,1,.14,1.42.81.81,0,0,1-.13.43c-.16.15-.45,0-.7-.08-2.48-1.09-5-2.25-7.44-3.46-.7-.89-1.22-1.72-1.92-2.61a2.77,2.77,0,0,0-.51-.56l-.15-.1a2.58,2.58,0,0,0-.6-.22c-1.54-.41-3.19-1.69-4.75-2.27a1,1,0,0,0-.66-.11c-.53.2-.27,1.36-.56,1.9-.49.9-2.18-.21-2.74.59a3.2,3.2,0,0,0,0,2.11c.12.56.23,1.13.35,1.7-.32.81-.76,1.7-1,2.57a.94.94,0,0,0-.05.48,1.74,1.74,0,0,0,.3.59,6.59,6.59,0,0,0,1.3,1.46,5.3,5.3,0,0,1,.71.65,9.73,9.73,0,0,1,1,2.12,4.9,4.9,0,0,0,1.54,1.78c.15.1.29.2.44.28a10.31,10.31,0,0,0,1.32.61l2.94,1.19a4.74,4.74,0,0,1,.52.24,1.78,1.78,0,0,1,.51.42,3,3,0,0,1,.53.95,13.7,13.7,0,0,1,.49,3.47c.17,1.48.74,3.1.93,4.59s-1,2.3-1.44,3.35a2.78,2.78,0,0,0-.25,1,5.36,5.36,0,0,0,.28,1.46c.4,1.36.79,2.73,1.19,4.1a2,2,0,0,0,.22.56,2.11,2.11,0,0,0,.42.47,14.53,14.53,0,0,0,1.53,1.15.55.55,0,0,0,.28.08c.12,0,.19-.1.25-.21a11.73,11.73,0,0,1,3.95-3.83,2.19,2.19,0,0,0,1.05-.95,3.64,3.64,0,0,0,.2-1.08l.39-4c.13-1.39,1.57-1.73,2.37-2.42a3.1,3.1,0,0,0,1.45-2.2c.07-1.22-.64-2.83-.57-4L296.61,223a8.69,8.69,0,0,1-1.55-3.38,4.28,4.28,0,0,1,.11-1.31c.16-.76.31-1.52.47-2.29a3.32,3.32,0,0,1,.75,1l1.69,2.75a1.93,1.93,0,0,1,.21.4.69.69,0,0,1,0,.41c-.21.77-.79,1.28-.59,2.28a5.89,5.89,0,0,0,1.14,2.07,2.69,2.69,0,0,0,.64.66.87.87,0,0,0,.6.08,4,4,0,0,0,2.31-1.29,1.45,1.45,0,0,0,.38-.61c.25-.79-.17-2.09.11-2.85C303.07,220.28,303.63,220,303.42,219.19Z" style="fill:#C53F3F"></path><path d="M270.11,243.9a5.59,5.59,0,0,1-1.66-3c-.06-.33-.06-.65-.14-1a12.43,12.43,0,0,0-.51-1.44,7.41,7.41,0,0,1-.49-3.77c.1-.58.3-1.06.36-1.66a10.22,10.22,0,0,0-.41-2.93,1.46,1.46,0,0,1-.06-.67c.06-.22.26-.28.43-.35,1.06-.48.56-2.6.07-4.41a1.59,1.59,0,0,1,.44-1.51,1.5,1.5,0,0,0,.16-1.67,2.39,2.39,0,0,0-1-1,5.53,5.53,0,0,0-1.58-.6,4.56,4.56,0,0,1-1.52-.42,2.18,2.18,0,0,1-.47-.36,8.07,8.07,0,0,1-1.23-2,3.66,3.66,0,0,0-1.16-1.42.77.77,0,0,0-.31-.11c-.22,0-.41.08-.69-.05a2.06,2.06,0,0,1-.66-.87,4.63,4.63,0,0,0-.6-1,1.61,1.61,0,0,0-.34-.27,2.8,2.8,0,0,0-.58-.23,2.49,2.49,0,0,1-.57-.22,1.44,1.44,0,0,1-.34-.28,6.58,6.58,0,0,1-.63-1,6.51,6.51,0,0,0-2.07-1.9,5.35,5.35,0,0,1-1.93-2.4,5.6,5.6,0,0,0,.16-1.11,2.36,2.36,0,0,0-1-1.64.66.66,0,0,0-.28-.11.31.31,0,0,0-.27,0c-.24.22.12,1,.06,1.37s-.67.33-1.15.08l-.17-.09a2.66,2.66,0,0,1-.62-.48,4.11,4.11,0,0,1-.64-1.07,13.51,13.51,0,0,1-.93-2.21,2.73,2.73,0,0,1,0-1.94.8.8,0,0,1,1.15-.18,1.76,1.76,0,0,1,.29.21,3,3,0,0,0,.5.46.3.3,0,0,0,.17.05c.29,0,.15-.6.25-.9s.41-.3.75-.1a1.94,1.94,0,0,1,.52.44,20.09,20.09,0,0,1,1.15,1.78,12.89,12.89,0,0,1,.87,1.22,2.94,2.94,0,0,0,.71,1.1c.29.17.53-.06.55-.4a3.84,3.84,0,0,0-.32-1.25c-.75-2-1.4-4.09-1.06-5.61a4.64,4.64,0,0,1,.41-1.1c.4-.83.87-1.67,1.69-1.84a3.34,3.34,0,0,0,.92-.17c.27-.15.38-.64.4-1.06a6.05,6.05,0,0,0,1.05.76,4.19,4.19,0,0,0,1,.42c.28.08.57.12.74-.05a.72.72,0,0,0,.2-.52,3.35,3.35,0,0,0-1.11-2.41,3,3,0,0,1-1-1,.76.76,0,0,1,0-.77.59.59,0,0,1,.56-.21,2.31,2.31,0,0,1,1,.32,5,5,0,0,1,.49.35,4.27,4.27,0,0,1,1.17,1.79,6.94,6.94,0,0,0,.58,1.88,1.81,1.81,0,0,0,.57.54,1.24,1.24,0,0,0,.4.15,1.2,1.2,0,0,0,.82-.19.91.91,0,0,0,.53-.92,2.47,2.47,0,0,0-.5-1.13,9.57,9.57,0,0,0-.83-.95,14.27,14.27,0,0,1-2.14-3.07c-.37-.72-.69-1.46-1.08-2.18a8.33,8.33,0,0,0-1.79-2.3,4.63,4.63,0,0,0-.65-.47,2.07,2.07,0,0,0-1.4-.32.7.7,0,0,1-.5,0,3.57,3.57,0,0,1-.82-1,4.84,4.84,0,0,0-1.48-1.41c-.45-.26-.84-.32-1,0s.09,1.15.19,1.76a1.88,1.88,0,0,1-.83,2.07.48.48,0,0,0-.23.19c-.14.33.29.94.47,1.45s.09,1-.21,1.07a.67.67,0,0,1-.55-.09,1.69,1.69,0,0,1-.51-.49c-.57-.84-.41-1.9-1-2.77-.37-.58-.94-.87-1.37-1.39a4.18,4.18,0,0,1-.84-2.43,3.14,3.14,0,0,1,.42-2,1.25,1.25,0,0,1,1.67-.23l.5.33a4.58,4.58,0,0,0,.54.36c.35.18.74.18.8-.18a1.56,1.56,0,0,0,0-.52,3.58,3.58,0,0,1,0-1.59c.14-.38.51-.56,1-.24a2.21,2.21,0,0,1,.73,1.39,1.94,1.94,0,0,1-.26,1.17.74.74,0,0,0-.14.34,1.35,1.35,0,0,0,.31.8,3.08,3.08,0,0,0,.62.58,8.83,8.83,0,0,0,1,.67,2,2,0,0,0,1.44.36.41.41,0,0,0,.33-.27,2.51,2.51,0,0,0,.05-.74c0-.7.51-1,.7-1.59a3.18,3.18,0,0,0-.27-2.1,4.14,4.14,0,0,0-1.52-1.76,3.67,3.67,0,0,0-1.16-.41,4,4,0,0,1-1.25-.47,2,2,0,0,1-.61-.6,5.76,5.76,0,0,1-.39-1,1.54,1.54,0,0,0-.6-.8c-.24-.08-.38.12-.48.31a2.73,2.73,0,0,0-.33.84c-.11.64.09,1.48,0,2.11-.06.26-.25.47-.56.28a1.3,1.3,0,0,1-.28-.4,2.3,2.3,0,0,1-.23-1.07c0-.5.28-.94,0-1.5a1.15,1.15,0,0,0-.44-.48.63.63,0,0,0-.6-.05,1.6,1.6,0,0,0-.5,1,2,2,0,0,0-.5-.79l-.21-.23a1,1,0,0,1-.08-.41,2.07,2.07,0,0,0-.8-1.3l-.15-.1a1.14,1.14,0,0,0-.93-.13c-.5.14-.82.74-.59,1.54.18.63.66,1.34.56,1.84a1.56,1.56,0,0,0-.27-.2c-.41-.24-.79-.12-.79.38l-.15-.07a5,5,0,0,1-1.54-2,8.25,8.25,0,0,0-1.52-2.37c-.44-.38-.93-.55-1.37-.93-.29.34-.57.7-.83,1.06a1.77,1.77,0,0,0-.12.17l-.09.11-.17.24a25.77,25.77,0,0,0-1.75,2.95c-.07.49-.15,1-.21,1.47a19.8,19.8,0,0,0-.26,4.93,46.7,46.7,0,0,0,1.05,5.07c.38,1.7.92,4,.32,5a4,4,0,0,0-.58,1.35,3.15,3.15,0,0,0,.26,1.88c.34.74.93,1.33,1.32,2,.75,1.38.58,2.75.88,4.16a8.46,8.46,0,0,0,2.2,4,2.66,2.66,0,0,0,.51.39c.33.19.65.23.72-.09s-.3-1-.62-1.44a18.62,18.62,0,0,1-2-3.57,2.5,2.5,0,0,1-.21-.75c0-.23.13-.4.33-.31a6.06,6.06,0,0,1,1,2.05,3.54,3.54,0,0,0,1.31,1.52,1.56,1.56,0,0,0,.57.2,1.17,1.17,0,0,1,.51.12,3.69,3.69,0,0,1,.34.25,13.79,13.79,0,0,1,2.94,3.05,23.73,23.73,0,0,1,1.59,3.29,8,8,0,0,0,2,3,3,3,0,0,0,.4.26,14.61,14.61,0,0,0,1.77.72,5.06,5.06,0,0,1,.46.24,8.18,8.18,0,0,1,2.12,1.83c-.92.54-1.32,2-1,3.6.1.52.26,1.06.32,1.56a12,12,0,0,1-.09,2.19,3.88,3.88,0,0,0,.64,2.39c.59.83,1.55,1.32,1.87,2.25.11.33.1.64.2,1a3.57,3.57,0,0,0,1.58,1.87,7,7,0,0,1,1.87,1.37c.87,1,1.08,2.45,1.5,3.71a11.09,11.09,0,0,0,1,2.15,10.16,10.16,0,0,1,1.38,2.51,8.31,8.31,0,0,0,.3,1.45c.29.69,1,1.22,1.18,1.92a4.78,4.78,0,0,1,.13.89,4.6,4.6,0,0,0,1.3,2.3,9,9,0,0,0,1.93,1.39l2.11,1.25c.37.21.8.39.95.1s-.1-.92-.43-1.3A12,12,0,0,0,270.11,243.9Z" style="fill:#C53F3F"></path><g style="opacity:0.30000000000000004"><path d="M262.64,187.06c-.13-.13-.27-.27-.41-.39a2,2,0,0,1-.46-.65,1.46,1.46,0,0,0-.27-.45,1.18,1.18,0,0,0-.32-.27c-.22-.12-.45-.15-.55,0l-.07.19a2.12,2.12,0,0,0-.07.45v.2l.12.24a1.88,1.88,0,0,0,.64.59l.05,0,.56.28.18.12.16.13.11.18a.71.71,0,0,0,.24.22l.12.06a.89.89,0,0,0,.33,0l.08-.06v-.09a1.21,1.21,0,0,0-.17-.43A2.78,2.78,0,0,0,262.64,187.06Z" style="fill:#fff"></path><path d="M251.71,165.29c.55.32,1,0,1.55,0a2.14,2.14,0,0,1,1.07.38l.36.22.29.17a3.3,3.3,0,0,0,.92.4,1.47,1.47,0,0,1,.57.15,1.87,1.87,0,0,1,.7,1.65,4.48,4.48,0,0,1-.54,1.24,1.79,1.79,0,0,0,.14,1.66,1.22,1.22,0,0,1,.24.43c.06.29-.23.29-.44.3-.53,0-.79.7-.55,1.48s.69,1.32.93,2,.2,1.18.45,1.77a4.89,4.89,0,0,0,1.84,2A4,4,0,0,0,260,181a2,2,0,0,0,.5.43,1,1,0,0,0,1,.09,1.82,1.82,0,0,0,.71-1.3,5.12,5.12,0,0,1,.3-1.24c.35-.75,1.18-.87,2-.77a2.82,2.82,0,0,0,1.66,0,1.37,1.37,0,0,0,.08-1.85c-.32-.48-.79-.74-1.12-1.2a2.53,2.53,0,0,1-.43-1.37,7.89,7.89,0,0,1,.11-1.21,7.47,7.47,0,0,0-.5-3.22,4.71,4.71,0,0,0-.74-1.38,3.64,3.64,0,0,0-1.09-.87l-.14-.09c-1.45-.81-2.9-1.46-4.34-2.29a18.19,18.19,0,0,1-2-1.34,21.79,21.79,0,0,0-1.86-1.38c-1.41-.81-3.29-.87-3.71.57a2.88,2.88,0,0,0,1.26,2.71Z" style="fill:#fff"></path><path d="M299.68,237.9l-.09-.05a.57.57,0,0,0-.68.17c-.29.29-.55.31-1.05.11l-1-.42a.75.75,0,0,0-.31-.08c-.19,0-.28.21-.31.44s0,.5,0,.74c-.07,1.23-1.14,1.49-1.5,2.5a.37.37,0,0,0,0,.24,1.19,1.19,0,0,0,.16.39,1.43,1.43,0,0,0,.41.56l0,0a.61.61,0,0,0,.25.08l.84.15a2.66,2.66,0,0,0,1.08,0,1.17,1.17,0,0,0,.8-1.1,7.53,7.53,0,0,1,.13-1.69,1.58,1.58,0,0,1,.75-.65C299.29,239.24,300.46,238.35,299.68,237.9Z" style="fill:#fff"></path><path d="M303.42,219.19a3.27,3.27,0,0,0-.28-.64,2.85,2.85,0,0,0-.82-1.08.47.47,0,0,0-.15-.06c-.45-.1-.48.59-.51,1.11a2.5,2.5,0,0,1-.63,1.64c-.32-.26-.65-.51-1-.76a4.34,4.34,0,0,1,.22-3.3c.49-1.26,1-2.51,1.49-3.75a4.29,4.29,0,0,0,.35-1.27,7.92,7.92,0,0,0-.3-2.13,21.35,21.35,0,0,0,1-5.47,8.23,8.23,0,0,0-.07-1.55,13.4,13.4,0,0,0-.63-2.09l-.81-2.22a3.44,3.44,0,0,0-.39-.85,4.2,4.2,0,0,0-.48-.55,11.19,11.19,0,0,1-2-2.79c-1-2-1.58-4.13-2.89-6a26.5,26.5,0,0,0-3.47-3.75,7.88,7.88,0,0,0-1.31-1.08,1.15,1.15,0,0,0-.25-.12,3.39,3.39,0,0,0-1.38-.21,7.78,7.78,0,0,1-3.39-1.1c-.22-.12-.48-.27-.62-.15s0,.62.18.94.49.57.72.88c-.22.47-1.25-.31-1.47.14-.07.14-.06.36-.17.43s-.18,0-.28-.05a3.15,3.15,0,0,1-1.06-1.69,5.11,5.11,0,0,0-.86-1.86,1.67,1.67,0,0,0-.39-.33.85.85,0,0,0-.53-.12c-.13,0-.22.08-.35.09a1.27,1.27,0,0,1-.56-.15c-.42-.21-.85-.42-1.27-.67l-.45-.27-.16-.06-.07.11a10,10,0,0,0-.42,1.81c-.07.52-.12,1.1-.46,1.33-.06,0-.13.06-.16.14V182a2.67,2.67,0,0,0,.7,1.39,2.36,2.36,0,0,0,.65.51l.36.2.36.19a3.38,3.38,0,0,1,.57.41,3.53,3.53,0,0,0,.62.56.45.45,0,0,0,.18.07c.22,0,.32-.25.29-.55a9.16,9.16,0,0,0-.23-.94,2.79,2.79,0,0,1,.26-2.06,2.85,2.85,0,0,0,.56,1.31,1.46,1.46,0,0,0,.32.25l.23.12a1.34,1.34,0,0,1,.24.12,1.46,1.46,0,0,1,.32.25c.42.46.46,1.16.77,1.74.09.17.19.32.27.5a.75.75,0,0,1-.06.72,1,1,0,0,1-.5.28,4.18,4.18,0,0,0-.79.4,1.71,1.71,0,0,1-.48.21.65.65,0,0,1-.43-.1.83.83,0,0,1-.19-.15c-.16-.15-.28-.37-.43-.54a1.2,1.2,0,0,0-.26-.21.44.44,0,0,0-.57,0,2.83,2.83,0,0,0-.84-.76c-.62-.36-1.26-.35-1.53.14s-.25,1.21-.71,1.32a1.08,1.08,0,0,1-.76-.22,2.61,2.61,0,0,1-.28-.17l-.3-.19a1.37,1.37,0,0,0-.69-.23c-.35,0-.54.42-.44.92a2.07,2.07,0,0,0,.88,1.29c.44.24.83.1,1.28.36a1.38,1.38,0,0,1,0,.66l-.06.13-.19,0c-1-.23-2.16-.86-3.1-.79a3.25,3.25,0,0,0-1.15.38c-.18.08-.36.18-.37.45a2,2,0,0,0,.21.68c.42.92.84,1.84,1.25,2.76a5.4,5.4,0,0,0,.4.75,2.12,2.12,0,0,0,.64.6,2.74,2.74,0,0,0,1.16.32.3.3,0,0,0,.25,0c.1-.09.07-.31.06-.51a2.28,2.28,0,0,1,1.28-2.11,7,7,0,0,1,1.7-.91.77.77,0,0,1,.62.05,3.37,3.37,0,0,1,.44.35c.62.59,1.24,1.22,1.83,1.9a4.1,4.1,0,0,1,.59.78,1.25,1.25,0,0,1,.2.87c-.06.23-.28.39-.14.69a1,1,0,0,0,.33.35l.33.21a1,1,0,0,0,.3.13c.39.08.63-.35.46-.88-.29-1-1.4-1.53-1.82-2.49-.13-.29-.15-.66,0-.67a.38.38,0,0,1,.23.08,4.7,4.7,0,0,1,1.19,1.14,2.51,2.51,0,0,1,.27.37,2.85,2.85,0,0,1,.2.51,18.69,18.69,0,0,0,1.74,3.68,4.6,4.6,0,0,0,1.23,1.47c.26.16.42-.25.33-.58s-.17-.53.11-.48c.35.25.54.82.85,1.18a1.61,1.61,0,0,0,.46.38,2.7,2.7,0,0,0,.34.17c.13.07.26.13.48.26l.21.3.39,1.25a1.24,1.24,0,0,0,.14.38,1.45,1.45,0,0,0,.32.37c.42.38.86.63,1.27,1a6.63,6.63,0,0,1,1.43,2.82c-.49,0-.8.59-.8,1.21a4.51,4.51,0,0,0,.6,2.05,1.5,1.5,0,0,0,.26.38.48.48,0,0,0,.15.11,1.45,1.45,0,0,0,.26.11l1,.32a.65.65,0,0,1,.26.15.85.85,0,0,1,.17.39,4.75,4.75,0,0,1,.14,1.42.81.81,0,0,1-.13.43c-.16.15-.45,0-.7-.08-2.48-1.09-5-2.25-7.44-3.46-.7-.89-1.22-1.72-1.92-2.61a2.77,2.77,0,0,0-.51-.56l-.15-.1a2.58,2.58,0,0,0-.6-.22c-1.54-.41-3.19-1.69-4.75-2.27a1,1,0,0,0-.66-.11c-.53.2-.27,1.36-.56,1.9-.49.9-2.18-.21-2.74.59a3.2,3.2,0,0,0,0,2.11c.12.56.23,1.13.35,1.7-.32.81-.76,1.7-1,2.57a.94.94,0,0,0-.05.48,1.74,1.74,0,0,0,.3.59,6.59,6.59,0,0,0,1.3,1.46,5.3,5.3,0,0,1,.71.65,9.73,9.73,0,0,1,1,2.12,4.9,4.9,0,0,0,1.54,1.78c.15.1.29.2.44.28a10.31,10.31,0,0,0,1.32.61l2.94,1.19a4.74,4.74,0,0,1,.52.24,1.78,1.78,0,0,1,.51.42,3,3,0,0,1,.53.95,13.7,13.7,0,0,1,.49,3.47c.17,1.48.74,3.1.93,4.59s-1,2.3-1.44,3.35a2.78,2.78,0,0,0-.25,1,5.36,5.36,0,0,0,.28,1.46c.4,1.36.79,2.73,1.19,4.1a2,2,0,0,0,.22.56,2.11,2.11,0,0,0,.42.47,14.53,14.53,0,0,0,1.53,1.15.55.55,0,0,0,.28.08c.12,0,.19-.1.25-.21a11.73,11.73,0,0,1,3.95-3.83,2.19,2.19,0,0,0,1.05-.95,3.64,3.64,0,0,0,.2-1.08l.39-4c.13-1.39,1.57-1.73,2.37-2.42a3.1,3.1,0,0,0,1.45-2.2c.07-1.22-.64-2.83-.57-4L296.61,223a8.69,8.69,0,0,1-1.55-3.38,4.28,4.28,0,0,1,.11-1.31c.16-.76.31-1.52.47-2.29a3.32,3.32,0,0,1,.75,1l1.69,2.75a1.93,1.93,0,0,1,.21.4.69.69,0,0,1,0,.41c-.21.77-.79,1.28-.59,2.28a5.89,5.89,0,0,0,1.14,2.07,2.69,2.69,0,0,0,.64.66.87.87,0,0,0,.6.08,4,4,0,0,0,2.31-1.29,1.45,1.45,0,0,0,.38-.61c.25-.79-.17-2.09.11-2.85C303.07,220.28,303.63,220,303.42,219.19Z" style="fill:#fff"></path><path d="M270.11,243.9a5.59,5.59,0,0,1-1.66-3c-.06-.33-.06-.65-.14-1a12.43,12.43,0,0,0-.51-1.44,7.41,7.41,0,0,1-.49-3.77c.1-.58.3-1.06.36-1.66a10.22,10.22,0,0,0-.41-2.93,1.46,1.46,0,0,1-.06-.67c.06-.22.26-.28.43-.35,1.06-.48.56-2.6.07-4.41a1.59,1.59,0,0,1,.44-1.51,1.5,1.5,0,0,0,.16-1.67,2.39,2.39,0,0,0-1-1,5.53,5.53,0,0,0-1.58-.6,4.56,4.56,0,0,1-1.52-.42,2.18,2.18,0,0,1-.47-.36,8.07,8.07,0,0,1-1.23-2,3.66,3.66,0,0,0-1.16-1.42.77.77,0,0,0-.31-.11c-.22,0-.41.08-.69-.05a2.06,2.06,0,0,1-.66-.87,4.63,4.63,0,0,0-.6-1,1.61,1.61,0,0,0-.34-.27,2.8,2.8,0,0,0-.58-.23,2.49,2.49,0,0,1-.57-.22,1.44,1.44,0,0,1-.34-.28,6.58,6.58,0,0,1-.63-1,6.51,6.51,0,0,0-2.07-1.9,5.35,5.35,0,0,1-1.93-2.4,5.6,5.6,0,0,0,.16-1.11,2.36,2.36,0,0,0-1-1.64.66.66,0,0,0-.28-.11.31.31,0,0,0-.27,0c-.24.22.12,1,.06,1.37s-.67.33-1.15.08l-.17-.09a2.66,2.66,0,0,1-.62-.48,4.11,4.11,0,0,1-.64-1.07,13.51,13.51,0,0,1-.93-2.21,2.73,2.73,0,0,1,0-1.94.8.8,0,0,1,1.15-.18,1.76,1.76,0,0,1,.29.21,3,3,0,0,0,.5.46.3.3,0,0,0,.17.05c.29,0,.15-.6.25-.9s.41-.3.75-.1a1.94,1.94,0,0,1,.52.44,20.09,20.09,0,0,1,1.15,1.78,12.89,12.89,0,0,1,.87,1.22,2.94,2.94,0,0,0,.71,1.1c.29.17.53-.06.55-.4a3.84,3.84,0,0,0-.32-1.25c-.75-2-1.4-4.09-1.06-5.61a4.64,4.64,0,0,1,.41-1.1c.4-.83.87-1.67,1.69-1.84a3.34,3.34,0,0,0,.92-.17c.27-.15.38-.64.4-1.06a6.05,6.05,0,0,0,1.05.76,4.19,4.19,0,0,0,1,.42c.28.08.57.12.74-.05a.72.72,0,0,0,.2-.52,3.35,3.35,0,0,0-1.11-2.41,3,3,0,0,1-1-1,.76.76,0,0,1,0-.77.59.59,0,0,1,.56-.21,2.31,2.31,0,0,1,1,.32,5,5,0,0,1,.49.35,4.27,4.27,0,0,1,1.17,1.79,6.94,6.94,0,0,0,.58,1.88,1.81,1.81,0,0,0,.57.54,1.24,1.24,0,0,0,.4.15,1.2,1.2,0,0,0,.82-.19.91.91,0,0,0,.53-.92,2.47,2.47,0,0,0-.5-1.13,9.57,9.57,0,0,0-.83-.95,14.27,14.27,0,0,1-2.14-3.07c-.37-.72-.69-1.46-1.08-2.18a8.33,8.33,0,0,0-1.79-2.3,4.63,4.63,0,0,0-.65-.47,2.07,2.07,0,0,0-1.4-.32.7.7,0,0,1-.5,0,3.57,3.57,0,0,1-.82-1,4.84,4.84,0,0,0-1.48-1.41c-.45-.26-.84-.32-1,0s.09,1.15.19,1.76a1.88,1.88,0,0,1-.83,2.07.48.48,0,0,0-.23.19c-.14.33.29.94.47,1.45s.09,1-.21,1.07a.67.67,0,0,1-.55-.09,1.69,1.69,0,0,1-.51-.49c-.57-.84-.41-1.9-1-2.77-.37-.58-.94-.87-1.37-1.39a4.18,4.18,0,0,1-.84-2.43,3.14,3.14,0,0,1,.42-2,1.25,1.25,0,0,1,1.67-.23l.5.33a4.58,4.58,0,0,0,.54.36c.35.18.74.18.8-.18a1.56,1.56,0,0,0,0-.52,3.58,3.58,0,0,1,0-1.59c.14-.38.51-.56,1-.24a2.21,2.21,0,0,1,.73,1.39,1.94,1.94,0,0,1-.26,1.17.74.74,0,0,0-.14.34,1.35,1.35,0,0,0,.31.8,3.08,3.08,0,0,0,.62.58,8.83,8.83,0,0,0,1,.67,2,2,0,0,0,1.44.36.41.41,0,0,0,.33-.27,2.51,2.51,0,0,0,.05-.74c0-.7.51-1,.7-1.59a3.18,3.18,0,0,0-.27-2.1,4.14,4.14,0,0,0-1.52-1.76,3.67,3.67,0,0,0-1.16-.41,4,4,0,0,1-1.25-.47,2,2,0,0,1-.61-.6,5.76,5.76,0,0,1-.39-1,1.54,1.54,0,0,0-.6-.8c-.24-.08-.38.12-.48.31a2.73,2.73,0,0,0-.33.84c-.11.64.09,1.48,0,2.11-.06.26-.25.47-.56.28a1.3,1.3,0,0,1-.28-.4,2.3,2.3,0,0,1-.23-1.07c0-.5.28-.94,0-1.5a1.15,1.15,0,0,0-.44-.48.63.63,0,0,0-.6-.05,1.6,1.6,0,0,0-.5,1,2,2,0,0,0-.5-.79l-.21-.23a1,1,0,0,1-.08-.41,2.07,2.07,0,0,0-.8-1.3l-.15-.1a1.14,1.14,0,0,0-.93-.13c-.5.14-.82.74-.59,1.54.18.63.66,1.34.56,1.84a1.56,1.56,0,0,0-.27-.2c-.41-.24-.79-.12-.79.38l-.15-.07a5,5,0,0,1-1.54-2,8.25,8.25,0,0,0-1.52-2.37c-.44-.38-.93-.55-1.37-.93-.29.34-.57.7-.83,1.06a1.77,1.77,0,0,0-.12.17l-.09.11-.17.24a25.77,25.77,0,0,0-1.75,2.95c-.07.49-.15,1-.21,1.47a19.8,19.8,0,0,0-.26,4.93,46.7,46.7,0,0,0,1.05,5.07c.38,1.7.92,4,.32,5a4,4,0,0,0-.58,1.35,3.15,3.15,0,0,0,.26,1.88c.34.74.93,1.33,1.32,2,.75,1.38.58,2.75.88,4.16a8.46,8.46,0,0,0,2.2,4,2.66,2.66,0,0,0,.51.39c.33.19.65.23.72-.09s-.3-1-.62-1.44a18.62,18.62,0,0,1-2-3.57,2.5,2.5,0,0,1-.21-.75c0-.23.13-.4.33-.31a6.06,6.06,0,0,1,1,2.05,3.54,3.54,0,0,0,1.31,1.52,1.56,1.56,0,0,0,.57.2,1.17,1.17,0,0,1,.51.12,3.69,3.69,0,0,1,.34.25,13.79,13.79,0,0,1,2.94,3.05,23.73,23.73,0,0,1,1.59,3.29,8,8,0,0,0,2,3,3,3,0,0,0,.4.26,14.61,14.61,0,0,0,1.77.72,5.06,5.06,0,0,1,.46.24,8.18,8.18,0,0,1,2.12,1.83c-.92.54-1.32,2-1,3.6.1.52.26,1.06.32,1.56a12,12,0,0,1-.09,2.19,3.88,3.88,0,0,0,.64,2.39c.59.83,1.55,1.32,1.87,2.25.11.33.1.64.2,1a3.57,3.57,0,0,0,1.58,1.87,7,7,0,0,1,1.87,1.37c.87,1,1.08,2.45,1.5,3.71a11.09,11.09,0,0,0,1,2.15,10.16,10.16,0,0,1,1.38,2.51,8.31,8.31,0,0,0,.3,1.45c.29.69,1,1.22,1.18,1.92a4.78,4.78,0,0,1,.13.89,4.6,4.6,0,0,0,1.3,2.3,9,9,0,0,0,1.93,1.39l2.11,1.25c.37.21.8.39.95.1s-.1-.92-.43-1.3A12,12,0,0,0,270.11,243.9Z" style="fill:#fff"></path></g><path d="M292.08,246.17l6.48,11.22-2.69,1.54-6.49-11.23c-3.22,1.12-7.14.35-11.06-1.91a35.79,35.79,0,0,1-12.43-13.11C259,220.82,259.08,208,266,204c3.45-2,8-1.33,12.48,1.28a35.81,35.81,0,0,1,12.44,13.11C297.28,229.51,297.67,241.44,292.08,246.17Zm-3.95-3.73c5.41-3.09,5.44-13.16.07-22.47a28.21,28.21,0,0,0-9.77-10.29c-3.54-2-7.08-2.54-9.78-1-5.41,3.08-5.44,13.15-.07,22.46a28.08,28.08,0,0,0,9.76,10.28c3.54,2,7.09,2.54,9.79,1" style="fill:#fff"></path><path d="M299.23,257l19.08,33c1.11,1.92,1.1,4,0,4.63a2.06,2.06,0,0,1-2-.21,5.73,5.73,0,0,1-2-2.12l-19.07-33,.67-.39,2.69-1.54Z" style="fill:#f0f0f0"></path><polygon points="227.69 252.19 228.96 255.14 239.47 261.2 239.43 276.7 219.83 265.39 219.87 250.68 219.88 249.89 219.88 247.68 227.69 252.19" style="fill:#C53F3F"></polygon><polygon points="219.83 269.84 239.43 281.15 239.43 279.41 219.83 268.1 219.83 269.84" style="fill:#C53F3F"></polygon><polygon points="219.83 271.73 219.83 273.47 230.22 279.46 230.22 277.72 219.83 271.73" style="fill:#C53F3F"></polygon><polygon points="219.83 269.84 239.43 281.15 239.43 279.41 219.83 268.1 219.83 269.84" style="fill:#fff;opacity:0.2"></polygon><polygon points="219.83 271.73 219.83 273.47 230.22 279.46 230.22 277.72 219.83 271.73" style="fill:#fff;opacity:0.2"></polygon><polygon points="258.32 269.94 259.59 272.88 270.1 278.95 270.05 294.45 250.46 283.13 250.5 268.43 250.5 267.64 250.51 265.43 258.32 269.94" style="fill:#C53F3F"></polygon><polygon points="250.46 287.58 270.05 298.9 270.05 297.16 250.46 285.84 250.46 287.58" style="fill:#C53F3F"></polygon><polygon points="250.46 289.47 250.46 291.21 260.84 297.21 260.84 295.47 250.46 289.47" style="fill:#C53F3F"></polygon><polygon points="250.46 287.58 270.05 298.9 270.05 297.16 250.46 285.84 250.46 287.58" style="fill:#fff;opacity:0.2"></polygon><polygon points="250.46 289.47 250.46 291.21 260.84 297.21 260.84 295.47 250.46 289.47" style="fill:#fff;opacity:0.2"></polygon><polygon points="288.94 287.68 290.22 290.63 300.73 296.69 300.68 312.19 281.09 300.88 281.13 286.17 281.13 285.38 281.14 283.17 288.94 287.68" style="fill:#C53F3F"></polygon><polygon points="281.09 305.33 300.68 316.64 300.68 314.9 281.09 303.59 281.09 305.33" style="fill:#C53F3F"></polygon><polygon points="281.09 307.22 281.09 308.96 291.47 314.95 291.47 313.21 281.09 307.22" style="fill:#C53F3F"></polygon><polygon points="281.09 305.33 300.68 316.64 300.68 314.9 281.09 303.59 281.09 305.33" style="fill:#fff;opacity:0.2"></polygon><polygon points="281.09 307.22 281.09 308.96 291.47 314.95 291.47 313.21 281.09 307.22" style="fill:#fff;opacity:0.2"></polygon><polygon points="319.57 305.43 320.85 308.37 331.35 314.44 331.31 329.94 311.71 318.63 311.76 303.92 311.76 303.13 311.76 300.92 319.57 305.43" style="fill:#C53F3F"></polygon><polygon points="311.71 323.07 331.31 334.39 331.31 332.65 311.71 321.33 311.71 323.07" style="fill:#C53F3F"></polygon><polygon points="311.71 324.96 311.71 326.7 322.1 332.7 322.1 330.96 311.71 324.96" style="fill:#C53F3F"></polygon><polygon points="311.71 323.07 331.31 334.39 331.31 332.65 311.71 321.33 311.71 323.07" style="fill:#fff;opacity:0.2"></polygon><polygon points="311.71 324.96 311.71 326.7 322.1 332.7 322.1 330.96 311.71 324.96" style="fill:#fff;opacity:0.2"></polygon><polygon points="227.69 283.95 228.96 286.89 239.47 292.96 239.43 308.46 219.83 297.15 219.87 282.44 219.88 281.65 219.88 279.44 227.69 283.95" style="fill:#C53F3F"></polygon><polygon points="219.83 301.6 239.43 312.91 239.43 311.17 219.83 299.86 219.83 301.6" style="fill:#C53F3F"></polygon><polygon points="219.83 303.49 219.83 305.23 230.22 311.22 230.22 309.48 219.83 303.49" style="fill:#C53F3F"></polygon><polygon points="219.83 301.6 239.43 312.91 239.43 311.17 219.83 299.86 219.83 301.6" style="fill:#fff;opacity:0.2"></polygon><polygon points="219.83 303.49 219.83 305.23 230.22 311.22 230.22 309.48 219.83 303.49" style="fill:#fff;opacity:0.2"></polygon><polygon points="258.32 301.69 259.59 304.64 270.1 310.71 270.05 326.21 250.46 314.89 250.5 300.19 250.5 299.39 250.51 297.19 258.32 301.69" style="fill:#C53F3F"></polygon><polygon points="250.46 319.34 270.05 330.66 270.05 328.92 250.46 317.6 250.46 319.34" style="fill:#C53F3F"></polygon><polygon points="250.46 321.23 250.46 322.97 260.84 328.97 260.84 327.23 250.46 321.23" style="fill:#C53F3F"></polygon><polygon points="250.46 319.34 270.05 330.66 270.05 328.92 250.46 317.6 250.46 319.34" style="fill:#fff;opacity:0.2"></polygon><polygon points="250.46 321.23 250.46 322.97 260.84 328.97 260.84 327.23 250.46 321.23" style="fill:#fff;opacity:0.2"></polygon><polygon points="288.94 319.44 290.22 322.39 300.73 328.45 300.68 343.95 281.09 332.64 281.13 317.93 281.13 317.14 281.14 314.93 288.94 319.44" style="fill:#C53F3F"></polygon><polygon points="281.09 337.09 300.68 348.4 300.68 346.66 281.09 335.35 281.09 337.09" style="fill:#C53F3F"></polygon><polygon points="281.09 338.98 281.09 340.72 291.47 346.71 291.47 344.97 281.09 338.98" style="fill:#C53F3F"></polygon><polygon points="281.09 337.09 300.68 348.4 300.68 346.66 281.09 335.35 281.09 337.09" style="fill:#fff;opacity:0.2"></polygon><polygon points="281.09 338.98 281.09 340.72 291.47 346.71 291.47 344.97 281.09 338.98" style="fill:#fff;opacity:0.2"></polygon><polygon points="319.57 337.19 320.85 340.13 331.35 346.2 331.31 361.7 311.71 350.38 311.76 335.68 311.76 334.89 311.76 332.68 319.57 337.19" style="fill:#C53F3F"></polygon><polygon points="311.71 354.83 331.31 366.15 331.31 364.41 311.71 353.09 311.71 354.83" style="fill:#C53F3F"></polygon><polygon points="311.71 356.72 311.71 358.46 322.1 364.46 322.1 362.72 311.71 356.72" style="fill:#C53F3F"></polygon><polygon points="311.71 354.83 331.31 366.15 331.31 364.41 311.71 353.09 311.71 354.83" style="fill:#fff;opacity:0.2"></polygon><polygon points="311.71 356.72 311.71 358.46 322.1 364.46 322.1 362.72 311.71 356.72" style="fill:#fff;opacity:0.2"></polygon><polygon points="227.69 252.19 219.88 247.68 219.88 249.89 219.87 250.68 219.83 265.39 239.43 276.7 239.47 261.2 228.96 255.14 227.69 252.19" style="fill:#fff;opacity:0.30000000000000004"></polygon><polygon points="239.43 279.41 219.83 268.1 219.83 269.84 239.43 281.15 239.43 279.41" style="fill:#fff;opacity:0.30000000000000004"></polygon><polygon points="230.22 277.72 219.83 271.73 219.83 273.47 230.22 279.46 230.22 277.72" style="fill:#fff;opacity:0.30000000000000004"></polygon><polygon points="258.32 269.94 250.51 265.43 250.5 267.64 250.5 268.43 250.46 283.13 270.05 294.45 270.1 278.95 259.59 272.88 258.32 269.94" style="fill:#fff;opacity:0.30000000000000004"></polygon><polygon points="270.05 297.16 250.46 285.84 250.46 287.58 270.05 298.9 270.05 297.16" style="fill:#fff;opacity:0.30000000000000004"></polygon><polygon points="260.84 295.47 250.46 289.47 250.46 291.21 260.84 297.21 260.84 295.47" style="fill:#fff;opacity:0.30000000000000004"></polygon><polygon points="288.94 287.68 281.14 283.17 281.13 285.38 281.13 286.17 281.09 300.88 300.68 312.19 300.73 296.69 290.22 290.63 288.94 287.68" style="fill:#fff;opacity:0.30000000000000004"></polygon><polygon points="300.68 314.9 281.09 303.59 281.09 305.33 300.68 316.64 300.68 314.9" style="fill:#fff;opacity:0.30000000000000004"></polygon><polygon points="291.47 313.21 281.09 307.22 281.09 308.96 291.47 314.95 291.47 313.21" style="fill:#fff;opacity:0.30000000000000004"></polygon><polygon points="331.35 314.44 320.85 308.37 319.57 305.43 311.76 300.92 311.76 303.13 311.76 303.92 311.71 318.63 331.31 329.94 331.35 314.44" style="fill:#fff;opacity:0.30000000000000004"></polygon><polygon points="331.31 332.65 311.71 321.33 311.71 323.07 331.31 334.39 331.31 332.65" style="fill:#fff;opacity:0.30000000000000004"></polygon><polygon points="322.1 330.96 311.71 324.96 311.71 326.7 322.1 332.7 322.1 330.96" style="fill:#fff;opacity:0.30000000000000004"></polygon><polygon points="227.69 283.95 219.88 279.44 219.88 281.65 219.87 282.44 219.83 297.15 239.43 308.46 239.47 292.96 228.96 286.89 227.69 283.95" style="fill:#fff;opacity:0.30000000000000004"></polygon><polygon points="219.83 301.6 239.43 312.91 239.43 311.17 219.83 299.86 219.83 301.6" style="fill:#fff;opacity:0.30000000000000004"></polygon><polygon points="219.83 305.23 230.22 311.22 230.22 309.48 219.83 303.49 219.83 305.23" style="fill:#fff;opacity:0.30000000000000004"></polygon><polygon points="258.32 301.69 250.51 297.19 250.5 299.39 250.5 300.19 250.46 314.89 270.05 326.21 270.1 310.71 259.59 304.64 258.32 301.69" style="fill:#fff;opacity:0.30000000000000004"></polygon><polygon points="250.46 319.34 270.05 330.66 270.05 328.92 250.46 317.6 250.46 319.34" style="fill:#fff;opacity:0.30000000000000004"></polygon><polygon points="250.46 322.97 260.84 328.97 260.84 327.23 250.46 321.23 250.46 322.97" style="fill:#fff;opacity:0.30000000000000004"></polygon><polygon points="288.94 319.44 281.14 314.93 281.13 317.14 281.13 317.93 281.09 332.64 300.68 343.95 300.73 328.45 290.22 322.39 288.94 319.44" style="fill:#fff;opacity:0.30000000000000004"></polygon><polygon points="281.09 337.09 300.68 348.4 300.68 346.66 281.09 335.35 281.09 337.09" style="fill:#fff;opacity:0.30000000000000004"></polygon><polygon points="281.09 340.72 291.47 346.71 291.47 344.97 281.09 338.98 281.09 340.72" style="fill:#fff;opacity:0.30000000000000004"></polygon><polygon points="319.57 337.19 311.76 332.68 311.76 334.89 311.76 335.68 311.71 350.38 331.31 361.7 331.35 346.2 320.85 340.13 319.57 337.19" style="fill:#fff;opacity:0.30000000000000004"></polygon><polygon points="311.71 354.83 331.31 366.15 331.31 364.41 311.71 353.09 311.71 354.83" style="fill:#fff;opacity:0.30000000000000004"></polygon><polygon points="311.71 358.46 322.1 364.46 322.1 362.72 311.71 356.72 311.71 358.46" style="fill:#fff;opacity:0.30000000000000004"></polygon></g><g id="freepik--earth-globe--inject-570"><path d="M278.22,433.08c0,3.18-2.06,6.36-6.23,8.79-8.36,4.85-21.94,4.85-30.35,0-4.2-2.43-6.31-5.61-6.33-8.79h0v6.36h0c0,3.18,2.13,6.36,6.33,8.78,8.41,4.86,22,4.86,30.35,0,4.17-2.42,6.25-5.6,6.23-8.78h0v-6.36Z" style="fill:#C53F3F"></path><path d="M241.64,441.87c8.41,4.85,22,4.85,30.35,0,4.17-2.43,6.25-5.61,6.23-8.79s-2.13-6.36-6.33-8.79c-8.41-4.85-22-4.85-30.35,0-4.17,2.43-6.25,5.61-6.23,8.79S237.44,439.44,241.64,441.87Z" style="fill:#C53F3F"></path><path d="M278.22,433.08c0,3.18-2.06,6.36-6.23,8.79-8.36,4.85-21.94,4.85-30.35,0-4.2-2.43-6.31-5.61-6.33-8.79h0v6.36h0c0,3.18,2.13,6.36,6.33,8.78,8.41,4.86,22,4.86,30.35,0,4.17-2.42,6.25-5.6,6.23-8.78h0v-6.36Z" style="opacity:0.1"></path><path d="M241.64,441.87c8.41,4.85,22,4.85,30.35,0,4.17-2.43,6.25-5.61,6.23-8.79s-2.13-6.36-6.33-8.79c-8.41-4.85-22-4.85-30.35,0-4.17,2.43-6.25,5.61-6.23,8.79S237.44,439.44,241.64,441.87Z" style="opacity:0.30000000000000004"></path><path d="M246,436.15c6,3.46,15.66,3.46,21.6,0,3-1.73,4.45-4,4.44-6.25s-1.52-4.53-4.51-6.26c-6-3.46-15.66-3.46-21.6,0-3,1.73-4.45,4-4.44,6.26S243,434.42,246,436.15Z" style="opacity:0.2"></path><circle cx="256.77" cy="386.02" r="44.32" transform="translate(-197.75 294.62) rotate(-45)" style="fill:#455a64"></circle><path d="M215.79,374.34a27.93,27.93,0,0,0,1.16,4.28c.43,1.42,1,3.31.37,4.63a6.49,6.49,0,0,0-.63,1.61,2.13,2.13,0,0,0,.29,1.66c.38.52,1,.77,1.47,1.24.83.9.64,2.31,1,3.49a4,4,0,0,0,2.44,2.6c.5.18,1.23.13,1.34-.39s-.33-.78-.68-1a8.38,8.38,0,0,1-2.19-2.33,1.28,1.28,0,0,1-.24-.61.47.47,0,0,1,.36-.47c.59.19.73.93,1.08,1.43a1.77,1.77,0,0,0,2.07.61,2.9,2.9,0,0,1,.41-.16,1.32,1.32,0,0,1,.52.05,7.54,7.54,0,0,1,3.25,1.29,11.32,11.32,0,0,1,1.77,2.28,3.75,3.75,0,0,0,2.24,1.7,8.49,8.49,0,0,0,2.39-.25,5,5,0,0,1,2.85.55,4.35,4.35,0,0,0-1.11,4c.1.45.28.88.35,1.33a11.09,11.09,0,0,1-.09,2.15,2.24,2.24,0,0,0,.71,1.94c.65.47,1.72.39,2.07,1.12.12.25.12.55.22.81a1.85,1.85,0,0,0,1.75.93,4.73,4.73,0,0,1,2.06.27c1,.51,1.2,1.75,1.67,2.73a4.72,4.72,0,0,0,1.12,1.49c.57.51,1.28.93,1.53,1.65a5.59,5.59,0,0,0,.34,1.23c.32.5,1.06.64,1.3,1.19a3.9,3.9,0,0,1,.16.77,2.15,2.15,0,0,0,1.44,1.49,6.33,6.33,0,0,0,2.13.27l2.25,0c.42,0,.94,0,1.12-.42a.84.84,0,0,0-.48-1,7.84,7.84,0,0,0-1.2-.32,2.67,2.67,0,0,1-1.83-1.93c-.06-.29-.07-.59-.16-.88a6.13,6.13,0,0,0-.57-1.11,5,5,0,0,1-.54-3.34c.11-.6.33-1.19.38-1.79a6.75,6.75,0,0,0-.45-2.58,1.08,1.08,0,0,1-.08-.61,1.3,1.3,0,0,1,.49-.58c1.16-1,.6-2.8,0-4.26-.21-.57.17-1.17.48-1.69s.57-1.24.18-1.7a1.4,1.4,0,0,0-1.16-.35,6.05,6.05,0,0,0-1.74.3,3.51,3.51,0,0,1-2.2.36,3.77,3.77,0,0,1-1.36-1.25,1.56,1.56,0,0,0-1.62-.66c-.25.1-.45.31-.72.33a1,1,0,0,1-.78-.46,2,2,0,0,0-.65-.66c-.63-.28-1.4.34-2,0-.29-.13-.46-.42-.69-.64a3.78,3.78,0,0,0-2.3-.67,2.69,2.69,0,0,1-2.12-1.24,7.6,7.6,0,0,0,.17-1.15,1.16,1.16,0,0,0-1.46-.95.62.62,0,0,0-.29.18c-.27.35.13.85.06,1.29s-.73.69-1.26.71a1.75,1.75,0,0,1-.88-.11,2.16,2.16,0,0,1-.71-.67,6.58,6.58,0,0,1-1-1.6,2.28,2.28,0,0,1,0-1.86,1.4,1.4,0,0,1,1.58-.76c.25.07.53.24.75.1s.16-.65.26-1c.16-.53.92-.63,1.41-.37a10.58,10.58,0,0,1,1.28,1.06,6.22,6.22,0,0,1,1,.7c.21.25.38.59.7.65s.67-.31.68-.68a2.06,2.06,0,0,0-.36-1,7,7,0,0,1-1.18-4.79,7.3,7.3,0,0,1,.45-1.29,6,6,0,0,1,1.87-2.7,7.37,7.37,0,0,0,1-.67,2,2,0,0,0,.43-1.24,4.28,4.28,0,0,0,2.22,0,1.41,1.41,0,0,0,.82-.46,1.09,1.09,0,0,0,.21-.61,1.69,1.69,0,0,0-1.23-1.69c-.39-.1-.88-.09-1.11-.42a.72.72,0,0,1,0-.76,1.36,1.36,0,0,1,.61-.5,2.54,2.54,0,0,1,1.69-.2,2,2,0,0,1,1.29,1.06c.22.5.22,1.14.65,1.48a1.1,1.1,0,0,0,1.07.13,2.48,2.48,0,0,0,.91-.64,1.51,1.51,0,0,0,.57-1.17,1.19,1.19,0,0,0-.55-.82,6,6,0,0,0-.92-.44,6.74,6.74,0,0,1-2.37-1.76c-.41-.48-.76-1-1.19-1.49a4,4,0,0,0-2-1.22,2.79,2.79,0,0,0-2.25.38,1.34,1.34,0,0,1-.43.25c-.39.09-.72-.28-1-.53-.73-.58-2.36-.83-2.73,0-.21.5.1,1.05.21,1.58a2.76,2.76,0,0,1-.91,2.45,1,1,0,0,0-.24.3c-.16.4.32.75.52,1.13a1,1,0,0,1-.23,1.15,1,1,0,0,1-1.17,0c-.64-.49-.46-1.6-1.07-2.13-.41-.35-1-.31-1.51-.57a2.2,2.2,0,0,1-.94-1.86,3.76,3.76,0,0,1,.45-2.19,2.32,2.32,0,0,1,1.85-1.15c.38,0,.77.1,1.15.08a.89.89,0,0,0,.88-.61,1.17,1.17,0,0,0,0-.49,2.94,2.94,0,0,1,0-1.5,1.12,1.12,0,0,1,1.14-.81,1.07,1.07,0,0,1,.81.93,2.17,2.17,0,0,1-.29,1.26,1.33,1.33,0,0,0-.14.41.66.66,0,0,0,.34.59,1.76,1.76,0,0,0,.68.22,3.46,3.46,0,0,0,2.67-.35,1.1,1.1,0,0,0,.36-.44,3,3,0,0,0,.05-.74c0-.69.56-1.25.77-1.91a2.1,2.1,0,0,0-2-2.72c-.91,0-1.76.56-2.66.5a1.08,1.08,0,0,1-.68-.24,2.43,2.43,0,0,1-.43-.73c-.14-.25-.39-.49-.67-.44s-.41.32-.53.56a4.32,4.32,0,0,0-.35,1c-.12.67.1,1.37,0,2-.06.3-.3.64-.61.57a.5.5,0,0,1-.3-.23,1.34,1.34,0,0,1-.27-.89c0-.49.3-1.06,0-1.44a.81.81,0,0,0-1.15.08,2.49,2.49,0,0,0-.54,1.24,1,1,0,0,0-.56-.48.61.61,0,0,1-.23-.11.62.62,0,0,1-.1-.34,1,1,0,0,0-.88-.81,1.63,1.63,0,0,0-1.19.37,1.65,1.65,0,0,0-.65,1.82c.2.5.74.92.63,1.45a.85.85,0,0,0-1.16.75,2.29,2.29,0,0,1-1.88-1A3.67,3.67,0,0,0,221,362.1c-.49-.13-1,0-1.51-.13a44.24,44.24,0,0,0-3.25,6c-.08.51-.16,1-.23,1.52A17.71,17.71,0,0,0,215.79,374.34Z" style="fill:#C53F3F"></path><path d="M248.74,355a1.36,1.36,0,0,1-.48-1.08,9.72,9.72,0,0,1,.12-1.21,4.92,4.92,0,0,0-.56-2.82,2.35,2.35,0,0,0-.82-.92,2.7,2.7,0,0,0-1.36-.23c-2.35,0-4.71.41-7,0a12.67,12.67,0,0,0-2-.28c-1.55,0-3.64,1-4.1,2.59a1.39,1.39,0,0,0,.61,1.64c1.07.68,1.62-.12,2.5-.6s2,0,2.91-.34a2.05,2.05,0,0,1,.62-.17c.54,0,.86.66.79,1.19a7.38,7.38,0,0,1-.61,1.5,1.35,1.35,0,0,0,.18,1.5c.09.09.22.16.26.28s-.25.41-.48.54a1.4,1.4,0,0,0-.61,1.72c.23.54.77.88,1,1.4s.23,1,.5,1.46a2.65,2.65,0,0,0,2,.89,2,2,0,0,0,.85,1.39,1.51,1.51,0,0,0,1.69-.34,3.17,3.17,0,0,0,.77-1.64,6.9,6.9,0,0,1,.32-1.36,3.76,3.76,0,0,1,2.23-1.85,5.19,5.19,0,0,0,1.82-.95,1.29,1.29,0,0,0,.09-1.83C249.63,355.21,249.11,355.23,248.74,355Z" style="fill:#C53F3F"></path><path d="M291,376a1.38,1.38,0,0,0-.31-.46c-.27-.33-.66-.69-1.07-.56s-.53.83-.56,1.35a3.77,3.77,0,0,1-.68,1.92l-1.09-.19c-.54-1-.15-2.23.24-3.29q.81-2.21,1.63-4.41a5,5,0,0,0,.37-1.41,5.07,5.07,0,0,0-.33-1.88,24,24,0,0,0,1.09-5.8,5.84,5.84,0,0,0-.08-1.45,6.73,6.73,0,0,0-.7-1.66c-.3-.56-.6-1.12-.89-1.68a1.76,1.76,0,0,0-.44-.6,2,2,0,0,0-.53-.25A5.07,5.07,0,0,1,285.5,354c-1.1-1.39-1.76-3.07-3.21-4.11a13.75,13.75,0,0,0-3.84-1.68,4,4,0,0,0-1.71-.29,5.32,5.32,0,0,0-1.53.56,9.14,9.14,0,0,1-3.74.83.83.83,0,0,0-.68.2.61.61,0,0,0,.2.8c.23.19.54.28.79.45-.24.57-1.37.38-1.62.95-.07.16-.05.37-.18.5a.43.43,0,0,1-.31.1c-.55,0-.94-.53-1.17-1s-.46-1.07-1-1.3a1,1,0,0,0-1,.07c-.13.09-.24.21-.38.29a1.42,1.42,0,0,1-.62.16,14.91,14.91,0,0,1-1.89,0,.2.2,0,0,0-.26.18,11,11,0,0,0-.45,2,2.74,2.74,0,0,1-.51,1.52.92.92,0,0,0-.17.22.49.49,0,0,0,0,.24,1.3,1.3,0,0,0,.77,1c.66.28,1.45,0,2.15.18.29.09.59.28.88.16a.64.64,0,0,0,.31-.69,3.47,3.47,0,0,0-.25-.77,2.94,2.94,0,0,1,.28-2.13,1.35,1.35,0,0,0,.63.95c.38.15.84-.07,1.22.1s.51.85.85,1.24a2.15,2.15,0,0,1,.29.32.73.73,0,0,1-.06.74,2.31,2.31,0,0,1-.54.54,11.38,11.38,0,0,0-.88.82,3,3,0,0,1-.53.47.8.8,0,0,1-.67.1,4.76,4.76,0,0,1-.49-.28.77.77,0,0,0-.91.26,1.89,1.89,0,0,0-2.61.73c-.27.56-.27,1.29-.78,1.65s-1.56,0-2.24.35a1,1,0,0,0-.48,1.13,1,1,0,0,0,1,.74c.49,0,.92-.37,1.41-.36a1.15,1.15,0,0,1,.05.61.29.29,0,0,1-.07.16.35.35,0,0,1-.21.12,16.7,16.7,0,0,0-3.41,1,6.94,6.94,0,0,0-1.28,1,1,1,0,0,0-.4.62,1,1,0,0,0,.23.54l1.39,2a2.11,2.11,0,0,0,.44.5c.56.41,1.34.15,2-.11a.71.71,0,0,0,.27-.18.76.76,0,0,0,.07-.52,4,4,0,0,1,1.4-2.74,15.22,15.22,0,0,1,1.87-1.81,1.26,1.26,0,0,1,.56-.29,1.37,1.37,0,0,1,.6.09,15.57,15.57,0,0,1,2,.8,2.09,2.09,0,0,1,.66.43.78.78,0,0,1,.22.72c-.07.25-.31.53-.15.74a.51.51,0,0,0,.36.15,1.83,1.83,0,0,0,.7,0,.86.86,0,0,0,.5-1.11c-.32-.76-1.55-.68-2-1.37-.14-.21-.16-.55.06-.67a.51.51,0,0,1,.25,0,2.75,2.75,0,0,1,1.32.43,1,1,0,0,1,.29.21,1.33,1.33,0,0,1,.23.38,8.78,8.78,0,0,0,1.92,2.57,2.51,2.51,0,0,0,1.34.73c.3,0,.49-.47.39-.75s-.19-.41,0-.5a.2.2,0,0,1,.15,0c.39.05.6.49.94.67s.94,0,1.41.06a.38.38,0,0,1,.16.05.29.29,0,0,1,.08.13l.42,1a.85.85,0,0,0,.16.28.72.72,0,0,0,.36.18c.46.13.95.12,1.39.29a3.05,3.05,0,0,1,1.59,1.91,1.92,1.92,0,0,0-.88,1.62,2.53,2.53,0,0,0,.67,1.62.83.83,0,0,0,.3.23.82.82,0,0,0,.44,0l1.07-.23a.39.39,0,0,1,.3,0,.4.4,0,0,1,.18.27,3.55,3.55,0,0,1,.16,1.29.88.88,0,0,1-.15.48,1,1,0,0,1-.77.32q-4.1.48-8.2.8c-.77-.47-1.35-1-2.12-1.44a1.78,1.78,0,0,0-.58-.26,2,2,0,0,0-.82.12c-1.7.45-3.51.14-5.25.44a1.62,1.62,0,0,0-.71.27c-.59.48-.3,1.44-.62,2.13-.53,1.13-2.39,1-3,2.08a2.66,2.66,0,0,0,0,2l.39,1.44c-.35.95-.83,2.05-1.11,3a1,1,0,0,0,0,.48.8.8,0,0,0,.32.41,3.88,3.88,0,0,0,1.44.67,2.69,2.69,0,0,1,.78.23c.54.3.7,1,1.08,1.5a2.53,2.53,0,0,0,1.7.86,7.92,7.92,0,0,0,1.94-.12l3.24-.49a1.92,1.92,0,0,1,1.14.06,1.32,1.32,0,0,1,.58.61,9.16,9.16,0,0,1,.55,3.06c.19,1.33.83,2.57,1.05,3.89s-1.1,2.76-1.58,4a3.29,3.29,0,0,0-.27,1.11,3.19,3.19,0,0,0,.31,1.24l1.32,3.27a1.1,1.1,0,0,0,.24.42,1.17,1.17,0,0,0,.48.22A8.25,8.25,0,0,0,275,408a.71.71,0,0,0,.41-.06.78.78,0,0,0,.28-.34,26,26,0,0,1,4.33-5.87,4.6,4.6,0,0,0,1.15-1.49,4,4,0,0,0,.23-1.14c.13-1.34.27-2.68.41-4s1.72-2.53,2.61-3.64a5.66,5.66,0,0,0,1.58-2.91c.09-1.21-.71-2.36-.63-3.57l-1.8-1.51a4.13,4.13,0,0,1-1.71-2.38,4,4,0,0,1,.12-1.32c.16-.81.33-1.63.5-2.45a1.62,1.62,0,0,1,.83.49l1.88,1.7a.74.74,0,0,1,.22.28.61.61,0,0,1,0,.4c-.23.84-.86,1.66-.63,2.5A2.64,2.64,0,0,0,286,384a1.37,1.37,0,0,0,.7.28,1.26,1.26,0,0,0,.66-.26,9.16,9.16,0,0,0,2.54-2.5,2.79,2.79,0,0,0,.42-.8c.27-.9-.19-1.91.12-2.8C290.63,377.26,291.25,376.66,291,376Z" style="fill:#C53F3F"></path><path d="M286.86,396a1.17,1.17,0,0,0-.75.53,1.49,1.49,0,0,1-1.16.69l-1.14.18a.82.82,0,0,0-.34.09.76.76,0,0,0-.34.59c0,.24,0,.48,0,.72-.07,1.22-1.26,2.07-1.65,3.23a.57.57,0,0,0,0,.26.64.64,0,0,0,.18.29.79.79,0,0,0,.45.3.81.81,0,0,0,.31-.06l.93-.32a4.63,4.63,0,0,0,1.19-.56,2.21,2.21,0,0,0,.88-1.51,7.07,7.07,0,0,1,.13-1.67,3.36,3.36,0,0,1,.83-1.05C286.53,397.53,287.91,395.92,286.86,396Z" style="fill:#C53F3F"></path><path d="M246.28,368a1,1,0,0,0-.3-.17l-.45-.16a.93.93,0,0,1-.51-.36,1,1,0,0,0-.3-.29.79.79,0,0,0-1,.23,1,1,0,0,0-.09.22,2.52,2.52,0,0,0-.06.47.41.41,0,0,0,0,.19.48.48,0,0,0,.13.16,1.16,1.16,0,0,0,.77.21,5.62,5.62,0,0,1,.82,0,.49.49,0,0,1,.16.05.69.69,0,0,1,.13.11.44.44,0,0,0,.4.06,1.27,1.27,0,0,0,.36-.2s.08-.05.09-.1a.27.27,0,0,0,0-.09A.75.75,0,0,0,246.28,368Z" style="fill:#C53F3F"></path><g style="opacity:0.4"><path d="M215.79,374.34a27.93,27.93,0,0,0,1.16,4.28c.43,1.42,1,3.31.37,4.63a6.49,6.49,0,0,0-.63,1.61,2.13,2.13,0,0,0,.29,1.66c.38.52,1,.77,1.47,1.24.83.9.64,2.31,1,3.49a4,4,0,0,0,2.44,2.6c.5.18,1.23.13,1.34-.39s-.33-.78-.68-1a8.38,8.38,0,0,1-2.19-2.33,1.28,1.28,0,0,1-.24-.61.47.47,0,0,1,.36-.47c.59.19.73.93,1.08,1.43a1.77,1.77,0,0,0,2.07.61,2.9,2.9,0,0,1,.41-.16,1.32,1.32,0,0,1,.52.05,7.54,7.54,0,0,1,3.25,1.29,11.32,11.32,0,0,1,1.77,2.28,3.75,3.75,0,0,0,2.24,1.7,8.49,8.49,0,0,0,2.39-.25,5,5,0,0,1,2.85.55,4.35,4.35,0,0,0-1.11,4c.1.45.28.88.35,1.33a11.09,11.09,0,0,1-.09,2.15,2.24,2.24,0,0,0,.71,1.94c.65.47,1.72.39,2.07,1.12.12.25.12.55.22.81a1.85,1.85,0,0,0,1.75.93,4.73,4.73,0,0,1,2.06.27c1,.51,1.2,1.75,1.67,2.73a4.72,4.72,0,0,0,1.12,1.49c.57.51,1.28.93,1.53,1.65a5.59,5.59,0,0,0,.34,1.23c.32.5,1.06.64,1.3,1.19a3.9,3.9,0,0,1,.16.77,2.15,2.15,0,0,0,1.44,1.49,6.33,6.33,0,0,0,2.13.27l2.25,0c.42,0,.94,0,1.12-.42a.84.84,0,0,0-.48-1,7.84,7.84,0,0,0-1.2-.32,2.67,2.67,0,0,1-1.83-1.93c-.06-.29-.07-.59-.16-.88a6.13,6.13,0,0,0-.57-1.11,5,5,0,0,1-.54-3.34c.11-.6.33-1.19.38-1.79a6.75,6.75,0,0,0-.45-2.58,1.08,1.08,0,0,1-.08-.61,1.3,1.3,0,0,1,.49-.58c1.16-1,.6-2.8,0-4.26-.21-.57.17-1.17.48-1.69s.57-1.24.18-1.7a1.4,1.4,0,0,0-1.16-.35,6.05,6.05,0,0,0-1.74.3,3.51,3.51,0,0,1-2.2.36,3.77,3.77,0,0,1-1.36-1.25,1.56,1.56,0,0,0-1.62-.66c-.25.1-.45.31-.72.33a1,1,0,0,1-.78-.46,2,2,0,0,0-.65-.66c-.63-.28-1.4.34-2,0-.29-.13-.46-.42-.69-.64a3.78,3.78,0,0,0-2.3-.67,2.69,2.69,0,0,1-2.12-1.24,7.6,7.6,0,0,0,.17-1.15,1.16,1.16,0,0,0-1.46-.95.62.62,0,0,0-.29.18c-.27.35.13.85.06,1.29s-.73.69-1.26.71a1.75,1.75,0,0,1-.88-.11,2.16,2.16,0,0,1-.71-.67,6.58,6.58,0,0,1-1-1.6,2.28,2.28,0,0,1,0-1.86,1.4,1.4,0,0,1,1.58-.76c.25.07.53.24.75.1s.16-.65.26-1c.16-.53.92-.63,1.41-.37a10.58,10.58,0,0,1,1.28,1.06,6.22,6.22,0,0,1,1,.7c.21.25.38.59.7.65s.67-.31.68-.68a2.06,2.06,0,0,0-.36-1,7,7,0,0,1-1.18-4.79,7.3,7.3,0,0,1,.45-1.29,6,6,0,0,1,1.87-2.7,7.37,7.37,0,0,0,1-.67,2,2,0,0,0,.43-1.24,4.28,4.28,0,0,0,2.22,0,1.41,1.41,0,0,0,.82-.46,1.09,1.09,0,0,0,.21-.61,1.69,1.69,0,0,0-1.23-1.69c-.39-.1-.88-.09-1.11-.42a.72.72,0,0,1,0-.76,1.36,1.36,0,0,1,.61-.5,2.54,2.54,0,0,1,1.69-.2,2,2,0,0,1,1.29,1.06c.22.5.22,1.14.65,1.48a1.1,1.1,0,0,0,1.07.13,2.48,2.48,0,0,0,.91-.64,1.51,1.51,0,0,0,.57-1.17,1.19,1.19,0,0,0-.55-.82,6,6,0,0,0-.92-.44,6.74,6.74,0,0,1-2.37-1.76c-.41-.48-.76-1-1.19-1.49a4,4,0,0,0-2-1.22,2.79,2.79,0,0,0-2.25.38,1.34,1.34,0,0,1-.43.25c-.39.09-.72-.28-1-.53-.73-.58-2.36-.83-2.73,0-.21.5.1,1.05.21,1.58a2.76,2.76,0,0,1-.91,2.45,1,1,0,0,0-.24.3c-.16.4.32.75.52,1.13a1,1,0,0,1-.23,1.15,1,1,0,0,1-1.17,0c-.64-.49-.46-1.6-1.07-2.13-.41-.35-1-.31-1.51-.57a2.2,2.2,0,0,1-.94-1.86,3.76,3.76,0,0,1,.45-2.19,2.32,2.32,0,0,1,1.85-1.15c.38,0,.77.1,1.15.08a.89.89,0,0,0,.88-.61,1.17,1.17,0,0,0,0-.49,2.94,2.94,0,0,1,0-1.5,1.12,1.12,0,0,1,1.14-.81,1.07,1.07,0,0,1,.81.93,2.17,2.17,0,0,1-.29,1.26,1.33,1.33,0,0,0-.14.41.66.66,0,0,0,.34.59,1.76,1.76,0,0,0,.68.22,3.46,3.46,0,0,0,2.67-.35,1.1,1.1,0,0,0,.36-.44,3,3,0,0,0,.05-.74c0-.69.56-1.25.77-1.91a2.1,2.1,0,0,0-2-2.72c-.91,0-1.76.56-2.66.5a1.08,1.08,0,0,1-.68-.24,2.43,2.43,0,0,1-.43-.73c-.14-.25-.39-.49-.67-.44s-.41.32-.53.56a4.32,4.32,0,0,0-.35,1c-.12.67.1,1.37,0,2-.06.3-.3.64-.61.57a.5.5,0,0,1-.3-.23,1.34,1.34,0,0,1-.27-.89c0-.49.3-1.06,0-1.44a.81.81,0,0,0-1.15.08,2.49,2.49,0,0,0-.54,1.24,1,1,0,0,0-.56-.48.61.61,0,0,1-.23-.11.62.62,0,0,1-.1-.34,1,1,0,0,0-.88-.81,1.63,1.63,0,0,0-1.19.37,1.65,1.65,0,0,0-.65,1.82c.2.5.74.92.63,1.45a.85.85,0,0,0-1.16.75,2.29,2.29,0,0,1-1.88-1A3.67,3.67,0,0,0,221,362.1c-.49-.13-1,0-1.51-.13a44.24,44.24,0,0,0-3.25,6c-.08.51-.16,1-.23,1.52A17.71,17.71,0,0,0,215.79,374.34Z" style="fill:#fff"></path><path d="M248.74,355a1.36,1.36,0,0,1-.48-1.08,9.72,9.72,0,0,1,.12-1.21,4.92,4.92,0,0,0-.56-2.82,2.35,2.35,0,0,0-.82-.92,2.7,2.7,0,0,0-1.36-.23c-2.35,0-4.71.41-7,0a12.67,12.67,0,0,0-2-.28c-1.55,0-3.64,1-4.1,2.59a1.39,1.39,0,0,0,.61,1.64c1.07.68,1.62-.12,2.5-.6s2,0,2.91-.34a2.05,2.05,0,0,1,.62-.17c.54,0,.86.66.79,1.19a7.38,7.38,0,0,1-.61,1.5,1.35,1.35,0,0,0,.18,1.5c.09.09.22.16.26.28s-.25.41-.48.54a1.4,1.4,0,0,0-.61,1.72c.23.54.77.88,1,1.4s.23,1,.5,1.46a2.65,2.65,0,0,0,2,.89,2,2,0,0,0,.85,1.39,1.51,1.51,0,0,0,1.69-.34,3.17,3.17,0,0,0,.77-1.64,6.9,6.9,0,0,1,.32-1.36,3.76,3.76,0,0,1,2.23-1.85,5.19,5.19,0,0,0,1.82-.95,1.29,1.29,0,0,0,.09-1.83C249.63,355.21,249.11,355.23,248.74,355Z" style="fill:#fff"></path><path d="M291,376a1.38,1.38,0,0,0-.31-.46c-.27-.33-.66-.69-1.07-.56s-.53.83-.56,1.35a3.77,3.77,0,0,1-.68,1.92l-1.09-.19c-.54-1-.15-2.23.24-3.29q.81-2.21,1.63-4.41a5,5,0,0,0,.37-1.41,5.07,5.07,0,0,0-.33-1.88,24,24,0,0,0,1.09-5.8,5.84,5.84,0,0,0-.08-1.45,6.73,6.73,0,0,0-.7-1.66c-.3-.56-.6-1.12-.89-1.68a1.76,1.76,0,0,0-.44-.6,2,2,0,0,0-.53-.25A5.07,5.07,0,0,1,285.5,354c-1.1-1.39-1.76-3.07-3.21-4.11a13.75,13.75,0,0,0-3.84-1.68,4,4,0,0,0-1.71-.29,5.32,5.32,0,0,0-1.53.56,9.14,9.14,0,0,1-3.74.83.83.83,0,0,0-.68.2.61.61,0,0,0,.2.8c.23.19.54.28.79.45-.24.57-1.37.38-1.62.95-.07.16-.05.37-.18.5a.43.43,0,0,1-.31.1c-.55,0-.94-.53-1.17-1s-.46-1.07-1-1.3a1,1,0,0,0-1,.07c-.13.09-.24.21-.38.29a1.42,1.42,0,0,1-.62.16,14.91,14.91,0,0,1-1.89,0,.2.2,0,0,0-.26.18,11,11,0,0,0-.45,2,2.74,2.74,0,0,1-.51,1.52.92.92,0,0,0-.17.22.49.49,0,0,0,0,.24,1.3,1.3,0,0,0,.77,1c.66.28,1.45,0,2.15.18.29.09.59.28.88.16a.64.64,0,0,0,.31-.69,3.47,3.47,0,0,0-.25-.77,2.94,2.94,0,0,1,.28-2.13,1.35,1.35,0,0,0,.63.95c.38.15.84-.07,1.22.1s.51.85.85,1.24a2.15,2.15,0,0,1,.29.32.73.73,0,0,1-.06.74,2.31,2.31,0,0,1-.54.54,11.38,11.38,0,0,0-.88.82,3,3,0,0,1-.53.47.8.8,0,0,1-.67.1,4.76,4.76,0,0,1-.49-.28.77.77,0,0,0-.91.26,1.89,1.89,0,0,0-2.61.73c-.27.56-.27,1.29-.78,1.65s-1.56,0-2.24.35a1,1,0,0,0-.48,1.13,1,1,0,0,0,1,.74c.49,0,.92-.37,1.41-.36a1.15,1.15,0,0,1,.05.61.29.29,0,0,1-.07.16.35.35,0,0,1-.21.12,16.7,16.7,0,0,0-3.41,1,6.94,6.94,0,0,0-1.28,1,1,1,0,0,0-.4.62,1,1,0,0,0,.23.54l1.39,2a2.11,2.11,0,0,0,.44.5c.56.41,1.34.15,2-.11a.71.71,0,0,0,.27-.18.76.76,0,0,0,.07-.52,4,4,0,0,1,1.4-2.74,15.22,15.22,0,0,1,1.87-1.81,1.26,1.26,0,0,1,.56-.29,1.37,1.37,0,0,1,.6.09,15.57,15.57,0,0,1,2,.8,2.09,2.09,0,0,1,.66.43.78.78,0,0,1,.22.72c-.07.25-.31.53-.15.74a.51.51,0,0,0,.36.15,1.83,1.83,0,0,0,.7,0,.86.86,0,0,0,.5-1.11c-.32-.76-1.55-.68-2-1.37-.14-.21-.16-.55.06-.67a.51.51,0,0,1,.25,0,2.75,2.75,0,0,1,1.32.43,1,1,0,0,1,.29.21,1.33,1.33,0,0,1,.23.38,8.78,8.78,0,0,0,1.92,2.57,2.51,2.51,0,0,0,1.34.73c.3,0,.49-.47.39-.75s-.19-.41,0-.5a.2.2,0,0,1,.15,0c.39.05.6.49.94.67s.94,0,1.41.06a.38.38,0,0,1,.16.05.29.29,0,0,1,.08.13l.42,1a.85.85,0,0,0,.16.28.72.72,0,0,0,.36.18c.46.13.95.12,1.39.29a3.05,3.05,0,0,1,1.59,1.91,1.92,1.92,0,0,0-.88,1.62,2.53,2.53,0,0,0,.67,1.62.83.83,0,0,0,.3.23.82.82,0,0,0,.44,0l1.07-.23a.39.39,0,0,1,.3,0,.4.4,0,0,1,.18.27,3.55,3.55,0,0,1,.16,1.29.88.88,0,0,1-.15.48,1,1,0,0,1-.77.32q-4.1.48-8.2.8c-.77-.47-1.35-1-2.12-1.44a1.78,1.78,0,0,0-.58-.26,2,2,0,0,0-.82.12c-1.7.45-3.51.14-5.25.44a1.62,1.62,0,0,0-.71.27c-.59.48-.3,1.44-.62,2.13-.53,1.13-2.39,1-3,2.08a2.66,2.66,0,0,0,0,2l.39,1.44c-.35.95-.83,2.05-1.11,3a1,1,0,0,0,0,.48.8.8,0,0,0,.32.41,3.88,3.88,0,0,0,1.44.67,2.69,2.69,0,0,1,.78.23c.54.3.7,1,1.08,1.5a2.53,2.53,0,0,0,1.7.86,7.92,7.92,0,0,0,1.94-.12l3.24-.49a1.92,1.92,0,0,1,1.14.06,1.32,1.32,0,0,1,.58.61,9.16,9.16,0,0,1,.55,3.06c.19,1.33.83,2.57,1.05,3.89s-1.1,2.76-1.58,4a3.29,3.29,0,0,0-.27,1.11,3.19,3.19,0,0,0,.31,1.24l1.32,3.27a1.1,1.1,0,0,0,.24.42,1.17,1.17,0,0,0,.48.22A8.25,8.25,0,0,0,275,408a.71.71,0,0,0,.41-.06.78.78,0,0,0,.28-.34,26,26,0,0,1,4.33-5.87,4.6,4.6,0,0,0,1.15-1.49,4,4,0,0,0,.23-1.14c.13-1.34.27-2.68.41-4s1.72-2.53,2.61-3.64a5.66,5.66,0,0,0,1.58-2.91c.09-1.21-.71-2.36-.63-3.57l-1.8-1.51a4.13,4.13,0,0,1-1.71-2.38,4,4,0,0,1,.12-1.32c.16-.81.33-1.63.5-2.45a1.62,1.62,0,0,1,.83.49l1.88,1.7a.74.74,0,0,1,.22.28.61.61,0,0,1,0,.4c-.23.84-.86,1.66-.63,2.5A2.64,2.64,0,0,0,286,384a1.37,1.37,0,0,0,.7.28,1.26,1.26,0,0,0,.66-.26,9.16,9.16,0,0,0,2.54-2.5,2.79,2.79,0,0,0,.42-.8c.27-.9-.19-1.91.12-2.8C290.63,377.26,291.25,376.66,291,376Z" style="fill:#fff"></path><path d="M286.86,396a1.17,1.17,0,0,0-.75.53,1.49,1.49,0,0,1-1.16.69l-1.14.18a.82.82,0,0,0-.34.09.76.76,0,0,0-.34.59c0,.24,0,.48,0,.72-.07,1.22-1.26,2.07-1.65,3.23a.57.57,0,0,0,0,.26.64.64,0,0,0,.18.29.79.79,0,0,0,.45.3.81.81,0,0,0,.31-.06l.93-.32a4.63,4.63,0,0,0,1.19-.56,2.21,2.21,0,0,0,.88-1.51,7.07,7.07,0,0,1,.13-1.67,3.36,3.36,0,0,1,.83-1.05C286.53,397.53,287.91,395.92,286.86,396Z" style="fill:#fff"></path><path d="M246.28,368a1,1,0,0,0-.3-.17l-.45-.16a.93.93,0,0,1-.51-.36,1,1,0,0,0-.3-.29.79.79,0,0,0-1,.23,1,1,0,0,0-.09.22,2.52,2.52,0,0,0-.06.47.41.41,0,0,0,0,.19.48.48,0,0,0,.13.16,1.16,1.16,0,0,0,.77.21,5.62,5.62,0,0,1,.82,0,.49.49,0,0,1,.16.05.69.69,0,0,1,.13.11.44.44,0,0,0,.4.06,1.27,1.27,0,0,0,.36-.2s.08-.05.09-.1a.27.27,0,0,0,0-.09A.75.75,0,0,0,246.28,368Z" style="fill:#fff"></path></g><path d="M220.37,372.07a48.46,48.46,0,0,1,2.11-14.13,44.31,44.31,0,0,0,66.86,58.12,48.5,48.5,0,0,1-69-44Z" style="opacity:0.22"></path></g><g id="freepik--Character--inject-570"><path d="M226,196.6l.21-.34Z" style="fill:#232d32"></path><polygon points="224.76 198.72 224.76 198.72 224.76 198.72 224.76 198.72" style="fill:#C53F3F"></polygon><path d="M224.76,198.72c.37-.73.77-1.44,1.18-2.12C225.53,197.28,225.13,198,224.76,198.72Z" style="fill:#C53F3F"></path><path d="M175.91,175.67l4.64-3.45a9.21,9.21,0,0,0,3.17-4.24l1.1-3a11.43,11.43,0,0,1,3.9-5.2,38.91,38.91,0,0,0,7.13-6.86h0a4.3,4.3,0,0,1,.31,5.43,29.78,29.78,0,0,1-2.85,3.26l2.56.18a9,9,0,0,0,5.28-1.29l6.5-4a1.23,1.23,0,0,1,1.88,1,28.28,28.28,0,0,1-1.87,9.41,10.61,10.61,0,0,1-6.21,6.28c-3.45,1.32-6.81,2.47-8.73,3.11a11,11,0,0,0-3.05,1.59L182.83,183Z" style="fill:#ffa8a7"></path><path d="M181,171.18,175.09,175a11.46,11.46,0,0,0,7.56,9.81l5.38-5.09S182.84,178.89,181,171.18Z" style="fill:#C53F3F"></path><path d="M181,171.18,175.09,175a11.46,11.46,0,0,0,7.56,9.81l5.38-5.09S182.84,178.89,181,171.18Z" style="fill:#fff;opacity:0.6000000000000001"></path><path d="M177.27,180.77a11.66,11.66,0,0,1-2.18-5.8l-18.36,11.85-10.84-30.33a11.43,11.43,0,0,0-9.31-7.49l-5.29-.69,4.94,35.5,8.44,16.93a11.27,11.27,0,0,0,17.23,3.68l20.75-19.64A11.72,11.72,0,0,1,177.27,180.77Z" style="fill:#C53F3F"></path><path d="M177.27,180.77a11.66,11.66,0,0,1-2.18-5.8l-18.36,11.85-10.84-30.33a11.43,11.43,0,0,0-9.31-7.49l-5.29-.69,4.94,35.5,8.44,16.93a11.27,11.27,0,0,0,17.23,3.68l20.75-19.64A11.72,11.72,0,0,1,177.27,180.77Z" style="fill:#fff;opacity:0.4"></path><polygon points="156.73 186.82 149.76 192.03 154.79 181.41 156.73 186.82" style="opacity:0.2"></polygon><path d="M154.74,379.28a11.46,11.46,0,0,1-8.59,3.15,25.86,25.86,0,0,1-9.09-2.29c-2.9-1.19-6.55-4.54-9.69-4.47a76.13,76.13,0,0,1-9.19-.63,47.74,47.74,0,0,1,1.31-12.44l14.66-.39c4,5.42,11.66,9.93,17.49,11.62a5.14,5.14,0,0,1,3.61,3.86.28.28,0,0,1,0,.09A6.19,6.19,0,0,1,154.74,379.28Z" style="fill:#455a64"></path><path d="M127.37,375.67c3.14-.07,6.79,3.28,9.69,4.47a25.86,25.86,0,0,0,9.09,2.29,11.46,11.46,0,0,0,8.59-3.15,6.19,6.19,0,0,0,.5-1.5.28.28,0,0,0,0-.09,4.58,4.58,0,0,1,0,1.95,6.19,6.19,0,0,1-.5,1.5,11.46,11.46,0,0,1-8.59,3.15,25.86,25.86,0,0,1-9.09-2.29c-2.9-1.19-6.55-4.53-9.69-4.47a69.88,69.88,0,0,1-9-.52c-.08-.66-.12-1.32-.15-2A76.13,76.13,0,0,0,127.37,375.67Z" style="fill:#263238"></path><path d="M86,380.65a22.09,22.09,0,0,0,.44,4.45,10.29,10.29,0,0,0,4.07,6.48,13,13,0,0,0,6.46,1.72,14.2,14.2,0,0,0,5.91-.61,6.66,6.66,0,0,0,3.46-2.82s0,.05,0,.08a6.21,6.21,0,0,1-4,4.14,14.37,14.37,0,0,1-5.91.61A13.12,13.12,0,0,1,89.94,393a10.3,10.3,0,0,1-4.06-6.49,21.36,21.36,0,0,1-.44-4.44,7.53,7.53,0,0,0-2.39-5.44c-.36-.34-.72-.7-1-1.07a2.64,2.64,0,0,1-.63-1.94c0-.28.05-.55.08-.81.54.62,1.81,2.12,2.13,2.42A7.5,7.5,0,0,1,86,380.65Z" style="fill:#263238"></path><path d="M97.19,365.16a16.33,16.33,0,0,0,1.14,9,33.94,33.94,0,0,0,4.78,7.85,23.67,23.67,0,0,1,2.49,3.64,6.53,6.53,0,0,1,.71,4.21,6.66,6.66,0,0,1-3.46,2.82,14.2,14.2,0,0,1-5.91.61,13,13,0,0,1-6.46-1.72,10.29,10.29,0,0,1-4.07-6.48,22.09,22.09,0,0,1-.44-4.45,7.5,7.5,0,0,0-2.38-5.44c-.32-.3-1.59-1.8-2.13-2.42a16.58,16.58,0,0,1,2.2-6.3Z" style="fill:#455a64"></path><path d="M140.51,220.32,139.28,304l-3.94,58.54c-10,6.32-17.23,1.15-17.23,1.15-3.79-27.73-4.31-44.79-2.24-56.33L114,262.18,108.29,309l-9.56,57.44c-10.25,6.65-17.48,0-17.48,0,0-21.26-1.9-45,4-60.37C81.07,258.74,88,221.18,88,221.18Z" style="fill:#37474f"></path><path d="M116.07,245,114,262.18l.88,21.14,3.85-34.74c8.92-3.49,10.08-8.4,10.08-8.4A27.43,27.43,0,0,1,116.07,245Z" style="opacity:0.30000000000000004"></path><path d="M121.51,147.28l9.78,1c8,7.07,12.15,21.88,10.42,38.25a290.23,290.23,0,0,0-1.2,33.76c-21.71,15.85-49.1,4.31-52.55.86l1.62-20.06a14,14,0,0,0-1.1-6.61c-2-4.76-5.71-14.13-6.2-21.39a38,38,0,0,1,4-18.69l14.21-6.2Z" style="fill:#C53F3F"></path><g style="opacity:0.5"><path d="M121.51,147.28l9.78,1c8,7.07,12.15,21.88,10.42,38.25a290.23,290.23,0,0,0-1.2,33.76c-21.71,15.85-49.1,4.31-52.55.86l1.62-20.06a14,14,0,0,0-1.1-6.61c-2-4.76-5.71-14.13-6.2-21.39a38,38,0,0,1,4-18.69l14.21-6.2Z" style="fill:#fff"></path></g><path d="M124.23,161.54c8.18,18.82,8,38.2,8,38.2l-4,8.65-6.31-8.27a325.83,325.83,0,0,0-.75-38Z" style="fill:#C53F3F"></path><path d="M124.57,154.43a29.71,29.71,0,0,1-.34,7.11,5.7,5.7,0,0,1-3,.56,25.11,25.11,0,0,1-4.89-5.9l4.89-1.77Z" style="fill:#C53F3F"></path><path d="M121.19,154.43c-4.21,1.55-8,9-8,9-11-9.38-12.78-15.24-12.78-15.24a22.23,22.23,0,0,1,5.36-5.66Z" style="fill:#C53F3F"></path><path d="M121.19,154.43c3.21.09,6,4.57,6,4.57.52-7.84-6-13.87-6-13.87Z" style="fill:#C53F3F"></path><g style="opacity:0.35000000000000003"><path d="M121.19,154.43c-4.21,1.55-8,9-8,9-11-9.38-12.78-15.24-12.78-15.24a22.23,22.23,0,0,1,5.36-5.66Z" style="fill:#fff"></path><path d="M121.19,154.43c3.21.09,6,4.57,6,4.57.52-7.84-6-13.87-6-13.87Z" style="fill:#fff"></path></g><path d="M100.45,111a8.7,8.7,0,0,1,5.57-3l29.1,2.74c3.36,7.22.68,12,.68,12,.45,11,.82,18-3.94,20.32-2.6,1.26-6.56,1.8-10.63,1.5a25,25,0,0,1-9.75-2.63l-.15-.08a8.33,8.33,0,0,1-4.17-5.56,44.92,44.92,0,0,1-1-6.51,28.79,28.79,0,0,0-.41-3.72,6.74,6.74,0,0,0-1.63-3.29,3.76,3.76,0,0,0-3.36-1.14,3.37,3.37,0,0,0-.6.23C99.33,116.92,99.09,112.68,100.45,111Z" style="fill:#37474f"></path><path d="M111.11,111.81a10.4,10.4,0,0,1-.39,6.18,45.79,45.79,0,0,0-1.85,6,9.92,9.92,0,0,0,.8,6.06,7,7,0,0,0,4.64,3.76c3.13.68,6.18-1.18,9.32-1.79a12.87,12.87,0,0,1,8.76,1.57,1.51,1.51,0,0,0,2.28-1.23c.38-6.33.37-16.26-.55-20.92Z" style="fill:#ffa8a7"></path><path d="M108.14,140.11h0Z" style="fill:#ffa8a7"></path><path d="M105.6,132.89s.06,2.57.12,5.64a8.81,8.81,0,0,1-2.71-4.26A4,4,0,0,0,105.6,132.89Z" style="fill:#37474f"></path><path d="M133.62,106.07l3.62-2.55a7.9,7.9,0,0,1-1.38,7.23,11.53,11.53,0,0,1-6.38,3.81,23.86,23.86,0,0,1-7.5.34,54.57,54.57,0,0,1-10.82-2,8.7,8.7,0,0,1-4.26-2.27,5.79,5.79,0,0,1-.22-6.73,8.4,8.4,0,0,1,6-3.51,22.46,22.46,0,0,1,7.2.57,21.64,21.64,0,0,0,7.2.53,7.56,7.56,0,0,0,5.81-3.91C134.91,100.94,133.62,106.07,133.62,106.07Z" style="fill:#37474f"></path><polygon points="124.5 123.04 129.8 129.56 124.93 131.31 124.5 123.04" style="fill:#f28f8f"></polygon><path d="M120.48,134.55l4.1,1.28a2.54,2.54,0,0,1-2.77,1.29A2.31,2.31,0,0,1,120.48,134.55Z" style="fill:#f28f8f"></path><path d="M120.48,134.55l4.1,1.28a2.54,2.54,0,0,1-2.77,1.29A2.31,2.31,0,0,1,120.48,134.55Z" style="opacity:0.30000000000000004"></path><path d="M123.16,137a2.33,2.33,0,0,1-1.35.09,2.1,2.1,0,0,1-1.33-1.88,2.39,2.39,0,0,1,1.59.29A2.49,2.49,0,0,1,123.16,137Z" style="fill:#f28f8f"></path><path d="M117.28,124.47a1.46,1.46,0,0,0,1.53,1.4,1.48,1.48,0,0,0-.16-3A1.47,1.47,0,0,0,117.28,124.47Z" style="fill:#263238"></path><path d="M129.47,123.32a1.46,1.46,0,1,0,1.38-1.55A1.46,1.46,0,0,0,129.47,123.32Z" style="fill:#263238"></path><path d="M130.58,117.37l3.34,2.09a2.13,2.13,0,0,0-.75-2.29A2.42,2.42,0,0,0,130.58,117.37Z" style="fill:#263238"></path><path d="M118.1,117.87l-3.1,2.44a2.13,2.13,0,0,1,.5-2.35A2.44,2.44,0,0,1,118.1,117.87Z" style="fill:#263238"></path><path d="M98.15,124a4.08,4.08,0,0,1,2-2.14,3.37,3.37,0,0,1,.6-.23,3.76,3.76,0,0,1,3.36,1.14,6.74,6.74,0,0,1,1.63,3.29,28.79,28.79,0,0,1,.41,3.72,45.76,45.76,0,0,0,1,6.67,8.2,8.2,0,0,0,4.15,5.4l.14.08a25,25,0,0,0,9.75,2.63l0,2.93v7l-13.75-8.14a3.32,3.32,0,0,1-1.63-2.81c0-1.58-.07-3.33-.11-4.95-.06-3.07-.12-5.64-.12-5.64a4,4,0,0,1-2.59,1.38,3.42,3.42,0,0,1-1.36-.07,5.11,5.11,0,0,1-3-2.63,9.77,9.77,0,0,1-1-4A8.07,8.07,0,0,1,98.15,124Z" style="fill:#ffa8a7"></path><path d="M109.52,141.68a9.54,9.54,0,0,1-1.7-3.58,8.18,8.18,0,0,0,3.52,3.7l.14.08a25,25,0,0,0,9.75,2.63V147a24.54,24.54,0,0,1-5.76-1.23A12.93,12.93,0,0,1,109.52,141.68Z" style="opacity:0.2"></path><path d="M149.18,220.77l10-40.8a4.81,4.81,0,0,1,2.27-3l24.92-14.35a.94.94,0,0,1,.47-.12h0a2.35,2.35,0,0,1,2.26,1.59h0a.89.89,0,0,1,.06.63l-10,40.81a4.83,4.83,0,0,1-2.27,3L152,222.87a1,1,0,0,1-.66.1h0a2.85,2.85,0,0,1-2.07-1.58.25.25,0,0,1,0-.07s0,0,0,0h0A1,1,0,0,1,149.18,220.77Z" style="fill:#C53F3F"></path><path d="M150.56,221.8l10-40.81a4.83,4.83,0,0,1,2.27-3l24.92-14.36a1,1,0,0,1,1.36.44.89.89,0,0,1,.06.63l-10,40.81a4.83,4.83,0,0,1-2.27,3L152,222.87a1,1,0,0,1-.66.1A.94.94,0,0,1,150.56,221.8Z" style="opacity:0.30000000000000004"></path><path d="M166.41,203.21c-2.66-1.16-8.94,6.07-14.12,5l1.29-5.23c-8.13.93-10.39,3.88-13.29,4.28a27.61,27.61,0,0,1-5.33-.22,24.93,24.93,0,0,1,.06,12.49c2.84,0,4.9.08,5.61.08,3.69,0,8,1.57,12,.77,7.55-1.79,10.54-4.55,10.57-7.83,0,0,3.11-2.11,2.14-5.49C165.32,207.08,169.07,204.38,166.41,203.21Z" style="fill:#ffa8a7"></path><path d="M129.76,205.46c-7.14-1.25-10.26-2.48-18.94-2.93l-6-16.88h0c-2.73-8.47-9.21-27.2-14.8-32.89-16.12,3.44-17.32,10.81-2.84,45.46,1.07,2.57,5.12,10.73,8,16.38a10.4,10.4,0,0,0,9.29,5.72h24.73A31.23,31.23,0,0,0,129.76,205.46Z" style="fill:#C53F3F"></path><path d="M138.17,206.65c-3.43-.38-6.12-.79-8.41-1.19a31.23,31.23,0,0,1-.62,14.86h8.12S141.2,212.63,138.17,206.65Z" style="fill:#C53F3F"></path><path d="M129.76,205.46c-7.14-1.25-10.26-2.48-18.94-2.93l-6-16.88h0c-2.73-8.47-9.21-27.2-14.8-32.89-16.12,3.44-17.32,10.81-2.84,45.46,1.07,2.57,5.12,10.73,8,16.38a10.4,10.4,0,0,0,9.29,5.72h24.73A31.23,31.23,0,0,0,129.76,205.46Z" style="fill:#fff;opacity:0.4"></path><path d="M138.17,206.65c-3.43-.38-6.12-.79-8.41-1.19a31.23,31.23,0,0,1-.62,14.86h8.12S141.2,212.63,138.17,206.65Z" style="fill:#fff;opacity:0.6000000000000001"></path><path d="M110.82,202.53a43.21,43.21,0,0,0-10.36,1.23,23.27,23.27,0,0,1,8.58-6.22Z" style="opacity:0.2"></path></g><g id="freepik--speech-bubbles--inject-570"><path d="M187.94,93.56Z" style="fill:none"></path><path d="M195.13,92.25A5.61,5.61,0,0,0,193,90.1L163.83,73.36c-2.55-1.46-8.6.52-8.6,4.63V94.82a5.69,5.69,0,0,0,2.87,5l22.51,12.86h0l-3.89-2.22,1.87,5.29a.29.29,0,0,0,.38.19v0c.33-.17,1.79-1,2.63-1.51h0l.06,0h0a.27.27,0,0,0,.08-.07l.46-.74,5.07,2.9a5.62,5.62,0,0,0,8.6-4.63V95A5.73,5.73,0,0,0,195.13,92.25Z" style="fill:#C53F3F"></path><path d="M181.74,114.28s-.05,0-.08.07h0l-.06,0h0c-.84.55-2.3,1.34-2.63,1.51v0a.3.3,0,0,0,.19-.12l1.81-2.93-.36-.21h0l1.59.91Z" style="fill:#fff;opacity:0.2"></path><path d="M189.47,95.47a5.77,5.77,0,0,0-1.53-1.91h0a5.25,5.25,0,0,0-.69-.47L158.07,76.35A1.89,1.89,0,0,0,155.23,78c0-4.11,6.05-6.09,8.6-4.63L193,90.1a5.61,5.61,0,0,1,2.12,2.15Z" style="fill:#fff;opacity:0.4"></path><path d="M190.11,114.79V98a5.06,5.06,0,0,0-.05-.68,5.89,5.89,0,0,0-.59-1.88l5.66-3.22a5.73,5.73,0,0,1,.74,2.79v16.77a5.62,5.62,0,0,1-8.6,4.63A1.9,1.9,0,0,0,190.11,114.79Z" style="fill:#fff;opacity:0.2"></path><path d="M165.86,92.6a2.19,2.19,0,0,1,1,1.8c0,.71-.45.95-1.06.6a2.24,2.24,0,0,1-1-1.82C164.8,92.46,165.27,92.26,165.86,92.6Z" style="fill:#fff"></path><path d="M171.3,90.14l1.76,1,0,7.9-1.68-1v-.57q-.5.39-1.47-.18a5.32,5.32,0,0,1-2.47-4.42c0-1.83,1.12-2.33,2.49-1.54a3.64,3.64,0,0,1,1.38,1.4Zm-1,5.8c.59.34,1,.1,1-.78a2.26,2.26,0,0,0-1-2c-.61-.35-1.06-.12-1.06.76a2.26,2.26,0,0,0,1.05,2" style="fill:#fff"></path><path d="M179.32,99.8c0,.15,0,.33,0,.48l-3.65-2.1a2.51,2.51,0,0,0,1.22,1.63A1.19,1.19,0,0,0,178,100l.93,1.64c-.49.34-1.19.25-2.15-.3a5.75,5.75,0,0,1-2.93-4.69c0-1.74,1.18-2.29,2.76-1.37A5.47,5.47,0,0,1,179.32,99.8Zm-3.71-2.7,2.06,1.19a2.21,2.21,0,0,0-1-1.59c-.55-.32-.93-.15-1,.4" style="fill:#fff"></path><path d="M274.16,38.54Z" style="fill:none"></path><path d="M281.35,37.24a5.78,5.78,0,0,0-2.12-2.16L250.05,18.35c-2.56-1.47-8.61.52-8.61,4.62V39.81a5.7,5.7,0,0,0,2.87,4.94l22.52,12.86h0l-3.89-2.22,1.86,5.3a.32.32,0,0,0,.39.19v0c.33-.17,1.8-1,2.64-1.51h0l.06,0h0a.24.24,0,0,0,.08-.06l.46-.75,5.07,2.9a5.62,5.62,0,0,0,8.6-4.63V40A5.66,5.66,0,0,0,281.35,37.24Z" style="fill:#C53F3F"></path><path d="M268,59.27a.24.24,0,0,1-.08.06h0l-.06,0h0c-.84.55-2.31,1.34-2.64,1.51v0a.35.35,0,0,0,.19-.13l1.8-2.93-.35-.21h0l1.59.91Z" style="fill:#fff;opacity:0.2"></path><path d="M275.68,40.45a5.87,5.87,0,0,0-1.52-1.91h0a5.7,5.7,0,0,0-.7-.47L244.29,21.33A1.9,1.9,0,0,0,241.44,23c0-4.1,6.05-6.09,8.61-4.62l29.18,16.73a5.78,5.78,0,0,1,2.12,2.16Z" style="fill:#fff;opacity:0.4"></path><path d="M276.33,59.77V43a5.19,5.19,0,0,0-.05-.68,5.91,5.91,0,0,0-.6-1.88l5.67-3.21a5.66,5.66,0,0,1,.74,2.78V56.79a5.62,5.62,0,0,1-8.6,4.63A1.9,1.9,0,0,0,276.33,59.77Z" style="fill:#fff;opacity:0.2"></path><path d="M247.68,35.11a2.19,2.19,0,0,1,1,1.8c0,.7-.46.94-1,.6a2.26,2.26,0,0,1-1.06-1.82C246.63,35,247.09,34.77,247.68,35.11Z" style="fill:#fff"></path><path d="M252.11,34.1A5.09,5.09,0,0,1,254.46,37h-1.37a2.36,2.36,0,0,0-1-1.35c-.61-.35-1.09-.14-1.09.73a2.36,2.36,0,0,0,1.09,2,.65.65,0,0,0,1-.2l1.36,1.58c-.34.81-1.22.88-2.36.23a5.77,5.77,0,0,1-2.87-4.65C249.23,33.67,250.42,33.13,252.11,34.1Z" style="fill:#fff"></path><path d="M257.6,37.27a5.67,5.67,0,0,1,2.82,4.6c0,1.74-1.19,2.31-2.84,1.36a5.76,5.76,0,0,1-2.83-4.63C254.76,36.86,256,36.32,257.6,37.27Zm0,4.35c.59.35,1.05.11,1.06-.77a2.3,2.3,0,0,0-1.06-2c-.59-.34-1.06-.12-1.06.76a2.3,2.3,0,0,0,1.06,2" style="fill:#fff"></path><path d="M267.79,43.15a4.15,4.15,0,0,1,2,3.74v3.29l-1.76-1v-3a1.75,1.75,0,0,0-.76-1.63c-.51-.29-.88-.1-.88.79v2.86l-1.76-1v-3a1.74,1.74,0,0,0-.76-1.63c-.51-.29-.89-.11-.89.78v2.86l-1.76-1,0-5.77,1.67,1V41a1.43,1.43,0,0,1,1.5.17,3.93,3.93,0,0,1,1.63,1.84C266.44,42.7,267.06,42.73,267.79,43.15Z" style="fill:#fff"></path><path d="M388.34,96.39Z" style="fill:none"></path><path d="M395.53,95.08a5.75,5.75,0,0,0-2.12-2.15L364.23,76.19c-2.56-1.46-8.61.52-8.61,4.63V97.65a5.71,5.71,0,0,0,2.87,4.95L381,115.46h0l-3.89-2.22,1.86,5.29a.31.31,0,0,0,.39.19v0c.33-.16,1.8-.95,2.64-1.5h0l.06,0h0a.27.27,0,0,0,.08-.07l.46-.74,5.07,2.9a5.62,5.62,0,0,0,8.6-4.63V97.87A5.73,5.73,0,0,0,395.53,95.08Z" style="fill:#C53F3F"></path><path d="M382.14,117.11a.27.27,0,0,1-.08.07h0l-.06,0h0c-.84.55-2.31,1.34-2.64,1.51v0a.3.3,0,0,0,.19-.13l1.8-2.92-.35-.21h0l1.59.91Z" style="fill:#fff;opacity:0.2"></path><path d="M389.86,98.3a5.62,5.62,0,0,0-1.52-1.91h0a6.54,6.54,0,0,0-.69-.48L358.47,79.18a1.9,1.9,0,0,0-2.85,1.64c0-4.11,6.05-6.09,8.61-4.63l29.18,16.74a5.75,5.75,0,0,1,2.12,2.15Z" style="fill:#fff;opacity:0.4"></path><path d="M390.51,117.62V100.85a5,5,0,0,0-.05-.67,5.91,5.91,0,0,0-.6-1.88l5.67-3.22a5.73,5.73,0,0,1,.74,2.79v16.77a5.62,5.62,0,0,1-8.6,4.63A1.9,1.9,0,0,0,390.51,117.62Z" style="fill:#fff;opacity:0.2"></path><path d="M363.56,93.62a2.16,2.16,0,0,1,1.05,1.8c0,.71-.46.94-1.06.6a2.24,2.24,0,0,1-1.05-1.82C362.5,93.48,363,93.28,363.56,93.62Z" style="fill:#fff"></path><path d="M367.94,92.58a5.67,5.67,0,0,1,2.83,4.61c0,1.74-1.18,2.31-2.84,1.35a5.7,5.7,0,0,1-2.83-4.62C365.1,92.18,366.3,91.64,367.94,92.58Zm0,4.36c.61.35,1.06.1,1.06-.77a2.29,2.29,0,0,0-1.05-2c-.59-.34-1.06-.12-1.06.76a2.33,2.33,0,0,0,1.05,2" style="fill:#fff"></path><path d="M375,96.63v1.82a3.85,3.85,0,0,0-.4-.26c-.71-.41-1.2-.28-1.2.73v2.65l-1.76-1V94.79l1.68,1v.69C373.63,96.13,374.22,96.21,375,96.63Z" style="fill:#fff"></path><path d="M379.36,99.27l1.68,1,0,4.71c0,2.18-1.08,2.6-2.95,1.52a8.18,8.18,0,0,1-2.5-2.2l.65-1a5.54,5.54,0,0,0,1.69,1.59c.95.55,1.35.29,1.35-.62V104c-.35.26-.86.19-1.5-.18a5.13,5.13,0,0,1-2.45-4.2c0-1.7,1.13-2.13,2.46-1.36a3.7,3.7,0,0,1,1.57,1.7Zm-1.17,3.2c.63.36,1.09.15,1.1-.55a2.21,2.21,0,0,0-1.09-1.81c-.64-.36-1.11-.16-1.11.54a2.26,2.26,0,0,0,1.1,1.82" style="fill:#fff"></path><path d="M435.82,195.56h0Z" style="fill:none"></path><path d="M443,194.26a5.71,5.71,0,0,0-2.13-2.15l-29.17-16.74c-2.56-1.47-8.61.52-8.61,4.63v16.83a5.7,5.7,0,0,0,2.87,4.94l22.51,12.87h0l-3.89-2.22,1.87,5.29a.32.32,0,0,0,.39.19v0c.33-.17,1.8-1,2.63-1.51h0l.05,0h0s.05,0,.07-.07l.46-.74,5.07,2.89a5.63,5.63,0,0,0,8.61-4.63V197.05A5.7,5.7,0,0,0,443,194.26Z" style="fill:#C53F3F"></path><path d="M429.62,216.29s-.05,0-.07.07h0l-.05,0h0c-.83.55-2.3,1.34-2.63,1.51v0a.29.29,0,0,0,.18-.13l1.81-2.93-.36-.2h0l1.59.91Z" style="fill:#fff;opacity:0.2"></path><path d="M437.35,197.48a5.87,5.87,0,0,0-1.52-1.91h0a4.92,4.92,0,0,0-.69-.47L406,178.35a1.9,1.9,0,0,0-2.84,1.65c0-4.11,6.05-6.1,8.61-4.63l29.17,16.74a5.71,5.71,0,0,1,2.13,2.15Z" style="fill:#fff;opacity:0.4"></path><path d="M438,216.79V200a4.92,4.92,0,0,0,0-.67,5.83,5.83,0,0,0-.6-1.88l5.67-3.22a5.7,5.7,0,0,1,.74,2.79v16.76a5.63,5.63,0,0,1-8.61,4.63A1.9,1.9,0,0,0,438,216.79Z" style="fill:#fff;opacity:0.2"></path><path d="M411.44,193.84a2.16,2.16,0,0,1,1.05,1.8c0,.71-.46.94-1.06.6a2.26,2.26,0,0,1-1.05-1.82C410.38,193.7,410.84,193.5,411.44,193.84Z" style="fill:#fff"></path><path d="M416.6,193.25a4.2,4.2,0,0,1,2.07,3.76v3.3l-1.76-1v-3a1.76,1.76,0,0,0-.82-1.66c-.57-.33-1-.17-1,.79v2.79l-1.77-1,0-5.77,1.68,1v.62A1.57,1.57,0,0,1,416.6,193.25Z" style="fill:#fff"></path><path d="M425,201.08c0,.15,0,.34,0,.49l-3.65-2.11a2.52,2.52,0,0,0,1.23,1.64,1.22,1.22,0,0,0,1.16.17l.92,1.64c-.48.34-1.19.25-2.14-.3a5.76,5.76,0,0,1-2.94-4.69c0-1.74,1.19-2.29,2.77-1.37A5.44,5.44,0,0,1,425,201.08Zm-3.71-2.7,2.06,1.19a2.16,2.16,0,0,0-1-1.58c-.54-.32-.92-.15-1,.39" style="fill:#fff"></path><path d="M427.77,198.51V200l1.15.66v1.52l-1.14-.67v1.92a1.08,1.08,0,0,0,.53,1,.81.81,0,0,0,.53.13l.44,1.67a2.18,2.18,0,0,1-1.23-.38,3.75,3.75,0,0,1-2-3.38v-1.93l-.73-.43v-1.51l.72.42v-1.5Z" style="fill:#fff"></path></g></svg>